<svg xmlns="http://www.w3.org/2000/svg" xmlns:xlink="http://www.w3.org/1999/xlink" id="katman_1" x="0px" y="0px" viewBox="0 0 1280 1024" style="enable-background:new 0 0 1280 1024;" xml:space="preserve"><style type="text/css">	.st0{fill:#414042;}	.st1{fill:#1F80FF;}	.st2{fill:#48AD1E;}	.st3{fill:#D32A97;}	.st4{fill:#FF6529;}</style><g transform="translate(-2 -2)">	<path class="st0" d="M488.6,574c0,4.9-4.1,8.9-9,8.9c-2.4-0.1-4.7-1-6.3-2.8l-38-41.6l-13.5,13v21.1c0,5.6-4.5,10.2-10.2,10.3  c-5.6,0-10.2-4.6-10.2-10.3c0,0,0,0,0,0V453.9c0-5.7,4.6-10.3,10.2-10.3c5.6,0,10.2,4.6,10.2,10.3v73.5l43.1-43.8  c1.9-1.7,4.3-2.8,6.8-2.9c5.1,0,9.2,4.2,9.2,9.3c0,2.4-0.8,4.7-2.4,6.6l-30.9,30.1l38.2,41.1C487.6,569.4,488.5,571.6,488.6,574  L488.6,574z M498.7,453.6c0.2-5.5,5.4-9.9,11.6-9.9c6.2,0,11.4,4.4,11.6,9.9c-0.2,5.5-5.4,9.9-11.6,9.9  C504.1,463.5,498.9,459.1,498.7,453.6z M521.7,492.1v80.3c0.2,3.7-2,7.2-5.6,9.1c-3.7,1.9-8,1.9-11.6,0c-3.6-1.9-5.7-5.4-5.6-9.1  v-80.3c-0.1-3.7,2-7.2,5.6-9.1c3.7-1.9,8-1.9,11.6,0C519.8,484.9,521.9,488.4,521.7,492.1z M608.6,494.8c1.6,2.1,2.6,4.6,2.7,7.3  c0,4.9-3.6,7.9-8.1,7.9c-3,0-5.9-1.4-8.7-5.3c-3.9-5.4-10.2-8.5-16.9-8.3c-9.5,0-15.2,4.9-15.2,12c0,4.9,2.7,9.6,12.7,12.7  l11.7,3.3c16.1,4.5,28.3,12,28.3,28.5c0,20.7-18.8,31.1-38.5,31.1c-16.5,0-28.1-7.5-33-15.5c-1-1.4-4-5.3-4-10  c0-4.1,2.5-8.4,7.8-8.4c4.4,0,6.6,2.8,8.5,5.7c4.7,8.3,12.5,11,20.7,11c11,0,18.6-4.7,18.6-12.6c0-5.9-4-10.2-13.4-13l-12.7-3.5  c-18.4-5.3-26.4-15.5-26.4-28.9c0-18.5,16.1-29.1,34.5-29.1C590.8,479.4,602.5,485.1,608.6,494.8z M695.6,494.8  c1.6,2.1,2.6,4.6,2.7,7.3c0,4.9-3.6,7.9-8.1,7.9c-3,0-5.9-1.4-8.7-5.3c-3.9-5.4-10.2-8.5-16.9-8.3c-9.5,0-15.2,4.9-15.2,12  c0,4.9,2.7,9.6,12.7,12.7l11.8,3.3c16.1,4.5,28.3,12,28.3,28.5c0,20.7-18.8,31.1-38.5,31.1c-16.5,0-28.1-7.5-33-15.5  c-1-1.4-4-5.3-4-10c0-4.1,2.5-8.4,7.8-8.4c4.4,0,6.6,2.8,8.5,5.7c4.7,8.3,12.5,11,20.7,11c11,0,18.6-4.7,18.6-12.6  c0-5.9-4-10.2-13.5-13l-12.7-3.5c-18.4-5.3-26.3-15.5-26.3-28.9c0-18.5,16.1-29.1,34.5-29.1C677.7,479.4,689.4,485.1,695.6,494.8z   M783.2,457.5c0.1,2-0.7,3.9-2,5.3c-1.3,1.4-3.2,2.2-5.1,2.1c-2.4-0.3-4.8-0.9-7-1.9c-2.7-1.4-5.6-2.2-8.6-2.3  c-10.3,0-13.6,8-13.6,15.7v6.5h18.4c4.8,0,8.1,3.2,8.1,8c0.1,2.2-0.7,4.4-2.3,5.9c-1.5,1.6-3.7,2.4-5.8,2.2h-18.4v73.6  c0.1,3.6-1.7,7-4.7,8.9c-3,1.9-6.8,1.9-9.9,0c-3.1-1.9-4.9-5.3-4.7-8.9V499h-6c-2.1,0.1-4.2-0.7-5.7-2.2c-1.5-1.6-2.3-3.7-2.2-5.9  c-0.1-2.2,0.7-4.3,2.2-5.8c1.5-1.5,3.6-2.3,5.7-2.2h6.1v-7.2c0-26,18.6-32.1,30.5-32.1c8.3,0,15.3,2.3,20.2,5.9  C781.4,451.6,783.2,454.1,783.2,457.5L783.2,457.5z M812.3,456.1v116.3c0,5.6-4.4,10.1-9.7,10.1c-5.4,0-9.7-4.5-9.7-10.1V456.1  c0-5.6,4.4-10.1,9.7-10.1C807.9,446.1,812.3,450.6,812.3,456.1C812.3,456.1,812.3,456.1,812.3,456.1z M930,531.8  c0,35-27.9,52.1-49.4,52.1c-21.5,0-49.3-17.1-49.3-52.1s27.7-52.4,49.3-52.4C902.2,479.4,930,496.9,930,531.8z M851,531.8  c0,22.1,15.2,34.1,29.6,34.1s29.8-12,29.8-34.1c0-22.4-15.2-34.3-29.8-34.3C865.9,497.5,851,509.4,851,531.8z M1089,494  c-0.2,1.6-0.7,3.1-1.4,4.5l-26.5,77.3c-1.7,4.9-5.3,7.5-9.4,7.5c-4.2,0-7.7-2.7-9.8-7.5l-25.4-62l-25.6,62  c-1.9,4.9-5.5,7.5-9.6,7.5c-4.1,0-7.7-2.7-9.4-7.5l-26.6-77.3c-0.7-1.4-1.1-2.9-1.3-4.5c0-2.5,1-4.9,2.7-6.7  c1.8-1.8,4.2-2.8,6.7-2.7c3.7,0,7,2.1,8.5,5.5l20.7,63.9l24.9-63.1c1.3-3.8,5-6.4,9-6.2c4-0.1,7.7,2.4,9.1,6.2l24.9,63.1l20.8-63.9  c0.9-3.4,4.9-5.5,8.5-5.5c2.5,0,4.9,1,6.7,2.7C1088,489.1,1089,491.5,1089,494L1089,494z"/>			<ellipse transform="matrix(0.7094 -0.7048 0.7048 0.7094 -246.7316 364.338)" class="st1" cx="318.5" cy="481.4" rx="45.6" ry="27.3"/>			<ellipse transform="matrix(0.7045 -0.7097 0.7097 0.7045 -304.6912 383.5786)" class="st2" cx="308.3" cy="557.7" rx="20.6" ry="32.7"/>			<ellipse transform="matrix(0.7048 -0.7094 0.7094 0.7048 -272.58 307.8658)" class="st3" cx="233.6" cy="481.4" rx="27.3" ry="45.6"/>			<ellipse transform="matrix(0.7097 -0.7045 0.7045 0.7097 -322.1024 333.6816)" class="st4" cx="243.8" cy="557.7" rx="32.7" ry="20.6"/></g></svg>