<svg xmlns="http://www.w3.org/2000/svg" id="svg" viewBox="0 0 1200 630" style="display: block;"><path d="M0 0 C396 0 792 0 1200 0 C1200 207.9 1200 415.8 1200 630 C804 630 408 630 0 630 C0 422.1 0 214.2 0 0 Z " transform="translate(0,0)" style="fill: #FEFEFE;"/><path d="M0 0 C17.68989077 14.36422888 17.68989077 14.36422888 19.8125 21.875 C19.874375 22.57625 19.93625 23.2775 20 24 C20.66 24 21.32 24 22 24 C22.4021875 25.0828125 22.4021875 25.0828125 22.8125 26.1875 C23.89875798 28.98183673 23.89875798 28.98183673 25.44140625 31.25 C27.21609578 34.38128177 28.15498195 37.34869537 29.125 40.8125 C29.62386719 42.55466797 29.62386719 42.55466797 30.1328125 44.33203125 C36.0895843 69.52756601 31.31025472 93.64990449 17.91015625 115.390625 C17.27980469 116.25171875 16.64945313 117.1128125 16 118 C15.34 118 14.68 118 14 118 C13.773125 118.53625 13.54625 119.0725 13.3125 119.625 C7.20620777 130.67448118 -5.47310839 137.75850309 -17 142 C-17.86238281 142.31839844 -18.72476563 142.63679687 -19.61328125 142.96484375 C-32.3501566 146.87418173 -48.17696341 146.36341943 -61 143 C-61 142.34 -61 141.68 -61 141 C-62.27875 140.855625 -63.5575 140.71125 -64.875 140.5625 C-67.25692894 140.29357254 -68.84452691 140.07773654 -71 139 C-71 138.34 -71 137.68 -71 137 C-71.66 136.95875 -72.32 136.9175 -73 136.875 C-81.49978377 134.3958964 -91.20241999 125.29474311 -96 118 C-96 117.34 -96 116.68 -96 116 C-96.66 116 -97.32 116 -98 116 C-98.93513774 114.37216763 -99.86825221 112.74314981 -100.79296875 111.109375 C-101.59130312 109.71422756 -102.40626221 108.32844985 -103.23828125 106.953125 C-114.50518405 87.8377605 -115.06469455 61.93148043 -109.76367188 40.74389648 C-106.21128991 27.96886864 -97.74189126 13.18288116 -87 5 C-86.34 5 -85.68 5 -85 5 C-85 4.34 -85 3.68 -85 3 C-61.83654332 -15.95530458 -24.54124761 -17.09017003 0 0 Z " transform="translate(381,280)" style="fill: #04C895;"/><path d="M0 0 C8.28033311 7.09742838 12.92842735 16.60955306 13.79994011 27.49819374 C14.04066858 32.86554181 14.04428805 38.23516363 14.03569031 43.60705566 C14.03117582 46.67541989 14.04531001 49.74321857 14.06408691 52.81152344 C14.10689235 60.41979207 14.11815545 68.02804552 14.13031006 75.63641357 C14.14182185 82.09215512 14.1653027 88.54763376 14.20500183 95.00326538 C14.21859242 98.02743487 14.21440036 101.05125133 14.20959473 104.07543945 C14.21892943 105.92008929 14.22909675 107.76473517 14.24023438 109.609375 C14.23408615 110.45092636 14.22793793 111.29247772 14.22160339 112.15953064 C14.14364286 116.3881157 14.14364286 116.3881157 15.99240875 120.02764893 C17.61366417 121.5217049 17.61366417 121.5217049 20.125 121.6875 C23.06590513 121.24636423 23.67386332 120.44101274 25.625 118.3125 C26.615 118.3125 27.605 118.3125 28.625 118.3125 C31.70129139 122.26773179 31.70129139 122.26773179 31.484375 125.23828125 C28.64055605 132.10222607 18.23160554 137.41860488 11.625 140.3125 C5.99605768 142.28817557 0.95285142 142.64813571 -4.9375 142.625 C-5.76185547 142.64111328 -6.58621094 142.65722656 -7.43554688 142.67382812 C-13.34804474 142.67855434 -17.62042678 141.79101577 -22.16796875 137.69921875 C-26.29715099 132.66786223 -29.97873172 128.15479286 -29.375 121.3125 C-30.303125 122.055 -30.303125 122.055 -31.25 122.8125 C-33.375 124.3125 -33.375 124.3125 -35.375 124.3125 C-35.375 124.9725 -35.375 125.6325 -35.375 126.3125 C-51.29319702 138.3268046 -69.41695163 144.77912968 -89.375 142.3125 C-93.7480696 141.15640114 -97.46043906 139.55684828 -101.375 137.3125 C-102.48875 136.735 -103.6025 136.1575 -104.75 135.5625 C-112.37954328 129.02289147 -115.66611774 120.35209465 -116.65625 110.51953125 C-116.95503073 101.69305058 -114.63227194 94.01613494 -110.375 86.3125 C-109.715 86.3125 -109.055 86.3125 -108.375 86.3125 C-108.11976563 85.72984375 -107.86453125 85.1471875 -107.6015625 84.546875 C-102.42649253 75.11967748 -90.830156 70.34602931 -81.375 66.3125 C-78.390625 65.58984375 -78.390625 65.58984375 -76.375 65.3125 C-76.375 64.6525 -76.375 63.9925 -76.375 63.3125 C-75.78074219 63.11615967 -75.18648437 62.91981934 -74.57421875 62.7175293 C-71.84060209 61.81332075 -69.10779909 60.90667634 -66.375 60 C-64.97314453 59.5369043 -64.97314453 59.5369043 -63.54296875 59.06445312 C-59.38232797 57.6824221 -55.23971882 56.28527213 -51.14453125 54.71875 C-47.50057058 53.33055239 -43.81367827 52.19500823 -40.0625 51.125 C-38.87011719 50.78082031 -37.67773438 50.43664062 -36.44921875 50.08203125 C-33.375 49.3125 -33.375 49.3125 -30.375 49.3125 C-30.39457749 44.51025697 -30.44676409 39.70980663 -30.52758789 34.90820312 C-30.55060824 33.27907103 -30.56512569 31.64979349 -30.57055664 30.02050781 C-30.44519149 16.34268784 -30.44519149 16.34268784 -36.375 4.3125 C-38.94575337 2.48872719 -41.40893026 1.34613036 -44.375 0.3125 C-45.14457031 -0.04070312 -45.91414062 -0.39390625 -46.70703125 -0.7578125 C-54.7325799 -3.55441657 -63.72697017 -2.19725381 -71.38671875 1.046875 C-73.70244964 2.52093553 -74.91997036 3.99706584 -76.375 6.3125 C-77.04243877 8.72594667 -77.04243877 8.72594667 -76.375 11.3125 C-75.25423061 12.90115226 -75.25423061 12.90115226 -73.875 14.4375 C-71.375 17.3125 -71.375 17.3125 -71.375 20.3125 C-70.715 20.3125 -70.055 20.3125 -69.375 20.3125 C-67.0328113 24.99687739 -67.88604174 31.22960831 -68.375 36.3125 C-69.48433026 39.37093389 -70.94550585 41.18073798 -73.375 43.3125 C-73.9215625 43.81523437 -74.468125 44.31796875 -75.03125 44.8359375 C-80.03021871 48.66989232 -84.92445702 49.04617473 -91.1015625 48.80859375 C-96.04789988 48.05896983 -100.3756338 46.34620727 -104.375 43.3125 C-104.87 41.8275 -104.87 41.8275 -105.375 40.3125 C-106.035 40.3125 -106.695 40.3125 -107.375 40.3125 C-111.26906669 31.55084994 -111.47457128 23.81963306 -108.4140625 14.6953125 C-103.32496723 3.02483086 -92.56555291 -3.63576469 -81.375 -8.6875 C-77.4145803 -9.99182984 -73.47804052 -10.95682155 -69.375 -11.6875 C-68.36824219 -11.86925781 -67.36148438 -12.05101562 -66.32421875 -12.23828125 C-44.11959429 -14.76402983 -18.64271854 -13.74693044 0 0 Z " transform="translate(625.375,281.6875)" style="fill: #04C895;"/><path d="M0 0 C2.8125 2.5625 2.8125 2.5625 5 5 C5.86625 5.825 6.7325 6.65 7.625 7.5 C13 13.15789474 13 13.15789474 13 17 C13.66 17 14.32 17 15 17 C16.36582464 20.32096447 17.69167593 23.65598035 19 27 C19.28488281 27.70640625 19.56976562 28.4128125 19.86328125 29.140625 C23.67674068 39.38807495 24 50.18039331 24 61 C-2.73 61 -29.46 61 -57 61 C-54.60657958 80.85556123 -54.60657958 80.85556123 -48.42578125 98.578125 C-47 102 -47 102 -47 105 C-46.34 105 -45.68 105 -45 105 C-42 108.46153846 -42 108.46153846 -42 111 C-41.34 111 -40.68 111 -40 111 C-39.4225 111.598125 -38.845 112.19625 -38.25 112.8125 C-32.62935733 118.27701371 -26.25614182 119.00718529 -18.75 119.25 C-7.38220868 119.08101932 2.42823597 114.51129527 10.51953125 106.5078125 C12.02104468 104.90918626 13.4947451 103.28364064 14.9296875 101.625 C17 100 17 100 19.5703125 100.125 C22 101 22 101 25 103 C20.44226337 115.73417871 8.44146206 127.98479698 -3 135 C-5.765625 135.6875 -5.765625 135.6875 -8 136 C-8 136.66 -8 137.32 -8 138 C-28.43737064 145.46471339 -46.11553866 146.09670372 -66 137 C-67.33774805 136.34223684 -68.67301502 135.67921506 -70 135 C-70 134.34 -70 133.68 -70 133 C-70.58136719 132.88785156 -71.16273438 132.77570313 -71.76171875 132.66015625 C-82.40680421 129.52050626 -90.84995747 116.79556952 -96.0625 107.5625 C-107.03825092 84.76327755 -105.18583873 54.49216507 -98 31 C-95.9303125 25.56489626 -93.3771471 20.74911311 -90 16 C-89.46375 15.071875 -88.9275 14.14375 -88.375 13.1875 C-84.82582283 8.42413064 -80.57974908 4.75806948 -76 1 C-75.12472656 0.28070313 -74.24945312 -0.43859375 -73.34765625 -1.1796875 C-51.22988449 -17.62066791 -21.91544956 -14.86707123 0 0 Z " transform="translate(904,281)" style="fill: #06C895;"/><path d="M0 0 C20.13 0 40.26 0 61 0 C61.02505615 5.90076416 61.0501123 11.80152832 61.07592773 17.88110352 C61.15932244 37.35508805 61.2479695 56.82904605 61.33933926 76.30299473 C61.39461974 88.11254965 61.44809323 99.92210759 61.49731445 111.73168945 C61.54021969 122.02478523 61.58651364 132.31785924 61.63687855 142.61092132 C61.66342841 148.06110343 61.68828016 153.51128136 61.70907402 158.96148872 C61.72870249 164.09220634 61.75286466 169.22288271 61.78049088 174.35356331 C61.78982848 176.23569487 61.79751547 178.11783546 61.80341911 179.99998093 C61.81173644 182.57246574 61.82602843 185.14485192 61.84178162 187.71730042 C61.84275972 188.45953639 61.84373783 189.20177237 61.84474558 189.96650034 C61.879716 194.41686944 62.28042567 198.62138475 63 203 C63.60328125 203.19335938 64.2065625 203.38671875 64.828125 203.5859375 C65.62734375 203.84632813 66.4265625 204.10671875 67.25 204.375 C68.03890625 204.63023437 68.8278125 204.88546875 69.640625 205.1484375 C71.86627958 205.95173667 73.90931672 206.89711662 76 208 C76 210.64 76 213.28 76 216 C50.92 216 25.84 216 0 216 C0 213.36 0 210.72 0 208 C0.83144531 207.72027344 1.66289062 207.44054687 2.51953125 207.15234375 C3.60621094 206.75144531 4.69289063 206.35054687 5.8125 205.9375 C6.89144531 205.55464844 7.97039062 205.17179688 9.08203125 204.77734375 C12.7637688 202.53478607 13.79805164 199.98675908 15 196 C15.43937411 192.36398165 15.43937411 192.36398165 15.36749268 188.51695251 C15.37076152 187.79649972 15.37403036 187.07604693 15.37739825 186.33376223 C15.3846392 183.93705144 15.37056064 181.5409599 15.35644531 179.14428711 C15.35723675 177.41902055 15.35933573 175.69375417 15.36264038 173.9684906 C15.36776367 169.29501205 15.35426051 164.62175461 15.33711338 159.94831157 C15.3220498 155.05307613 15.32325075 150.15784323 15.32244873 145.2625885 C15.31875918 137.04375446 15.30380731 128.82500409 15.28125 120.60620117 C15.25236828 110.06170826 15.24202501 99.51728266 15.2375679 88.97275448 C15.2335852 79.89992236 15.22108484 70.82710483 15.20722103 61.75428319 C15.20312685 58.84115777 15.20019879 55.92803287 15.19742584 53.01490593 C15.19252373 48.43566592 15.18230494 43.85646643 15.16798782 39.27724648 C15.16347489 37.59786724 15.16062854 35.91848257 15.15958023 34.2390976 C15.15782694 31.94471264 15.1499243 29.65042805 15.14044189 27.35606384 C15.13746723 26.07280181 15.13449257 24.78953978 15.13142776 23.46739101 C15.00839259 20.22141745 14.61599786 17.18549433 14 14 C13.34 14 12.68 14 12 14 C12 13.34 12 12.68 12 12 C8.07561214 10.33510818 4.10899581 9.12795963 0 8 C0 5.36 0 2.72 0 0 Z " transform="translate(422,204)" style="fill: #01C894;"/><path d="M0 0 C0 0.66 0 1.32 0 2 C1.0828125 2.3403125 1.0828125 2.3403125 2.1875 2.6875 C5.56432417 4.26335128 7.55767039 6.20876616 10 9 C10 9.66 10 10.32 10 11 C11.485 11.495 11.485 11.495 13 12 C17.48351034 18.66121536 18.16448609 25.0891937 17 33 C15.68924391 36.29276444 14.07473462 39.13242037 12 42 C11.34 42 10.68 42 10 42 C10 42.66 10 43.32 10 44 C8.02 44.66 6.04 45.32 4 46 C4 46.66 4 47.32 4 48 C-10.27280429 48.57949732 -10.27280429 48.57949732 -16 45 C-23.93418492 37.2421303 -23.33301917 28.31055809 -23.56640625 17.91796875 C-23.59605469 16.97308594 -23.62570312 16.02820313 -23.65625 15.0546875 C-23.68428711 13.77827393 -23.68428711 13.77827393 -23.71289062 12.47607422 C-24.03890116 9.66451057 -24.7192454 7.52238115 -26 5 C-28.6180731 4.03037834 -28.6180731 4.03037834 -32 4 C-32.75925781 3.92652344 -33.51851562 3.85304688 -34.30078125 3.77734375 C-41.0649041 3.36707813 -45.56467152 4.99325888 -51 9 C-60.34060637 17.58325991 -61.53023591 35.01594464 -62.15673828 46.99755859 C-62.93500782 71.89045099 -59.99820008 98.97596992 -42.21875 118.0546875 C-33.27700873 125.89445362 -23.41582199 126.65622404 -12 126 C-2.62663694 124.56905242 5.0003458 119.37117249 11.375 112.5 C12.24125 111.675 13.1075 110.85 14 110 C17.30536102 110.39588925 18.83562627 111.51097021 21 114 C20.34 115.65 19.68 117.3 19 119 C18.34 119 17.68 119 17 119 C16.76539063 119.55429687 16.53078125 120.10859375 16.2890625 120.6796875 C11.7871011 128.78321802 3.5170725 134.68035987 -4.1875 139.5 C-4.83992676 139.90879395 -5.49235352 140.31758789 -6.16455078 140.73876953 C-20.59242962 149.41727477 -38.62389039 151.42140661 -55.0234375 147.87890625 C-76.49943748 141.53756767 -90.89701564 129.04206018 -101.6875 109.375 C-104.94454947 102.62441562 -106.36259628 95.27199886 -108 88 C-108.17797119 87.35659668 -108.35594238 86.71319336 -108.53930664 86.05029297 C-110.90068319 75.54110362 -109.48066995 62.33376224 -107 52 C-106.74347656 50.88496094 -106.48695313 49.76992188 -106.22265625 48.62109375 C-101.23857976 29.13399641 -88.92604292 12.07898148 -71.63671875 1.5625 C-68.62842473 -0.02139155 -66.43240432 -1 -63 -1 C-63 -1.66 -63 -2.32 -63 -3 C-61.33546212 -3.48651015 -59.66822271 -3.96377915 -58 -4.4375 C-57.071875 -4.70433594 -56.14375 -4.97117187 -55.1875 -5.24609375 C-37.02365147 -9.54220008 -16.64655968 -8.81773211 0 0 Z " transform="translate(772,276)" style="fill: #03C895;"/><path d="M0 0 C4.52328702 1.19614522 8.57231526 1.18027319 13.04296875 -0.1953125 C13.37296875 -1.8453125 13.70296875 -3.4953125 14.04296875 -5.1953125 C16.68296875 -5.1953125 19.32296875 -5.1953125 22.04296875 -5.1953125 C22.04296875 10.3146875 22.04296875 25.8246875 22.04296875 41.8046875 C19.07296875 41.8046875 16.10296875 41.8046875 13.04296875 41.8046875 C12.75164062 40.89847656 12.4603125 39.99226563 12.16015625 39.05859375 C7.39220101 24.88967017 1.35736321 16.03052744 -11.84375 8.78515625 C-20.31924543 4.85290236 -31.28088879 6.02832191 -39.95703125 8.8046875 C-39.95703125 9.4646875 -39.95703125 10.1246875 -39.95703125 10.8046875 C-40.95562774 11.80608904 -41.95581692 12.8059033 -42.95703125 13.8046875 C-46.0218911 19.28981367 -46.42070321 23.7548434 -44.95703125 29.8046875 C-39.68506907 40.13773337 -29.23448776 45.55194688 -18.95703125 49.8046875 C-1.32274991 57.31788483 19.08854245 66.75217662 27.1328125 85.3203125 C31.11251675 97.57119931 30.28783765 111.30371989 24.56640625 122.76171875 C17.79820227 135.04647254 9.58822285 144.35010556 -4.08203125 148.6796875 C-22.36932653 152.59166046 -40.09530381 149.78378948 -57.25390625 143.14453125 C-61.24553232 141.70030368 -63.02743184 141.19712411 -66.95703125 142.8046875 C-68.68376311 145.05158393 -69.73259593 147.21453585 -70.95703125 149.8046875 C-73.59703125 149.8046875 -76.23703125 149.8046875 -78.95703125 149.8046875 C-78.95703125 132.6446875 -78.95703125 115.4846875 -78.95703125 97.8046875 C-75.98703125 97.8046875 -73.01703125 97.8046875 -69.95703125 97.8046875 C-69.41175781 99.48884766 -69.41175781 99.48884766 -68.85546875 101.20703125 C-66.32495756 108.80959656 -63.97781362 115.79284188 -59.05859375 122.23828125 C-57.95703125 123.8046875 -57.95703125 123.8046875 -57.95703125 125.8046875 C-57.35890625 126.0934375 -56.76078125 126.3821875 -56.14453125 126.6796875 C-53.95703125 127.8046875 -53.95703125 127.8046875 -50.95703125 129.8046875 C-50.95703125 130.4646875 -50.95703125 131.1246875 -50.95703125 131.8046875 C-50.07015625 132.0728125 -49.18328125 132.3409375 -48.26953125 132.6171875 C-44.95703125 133.8046875 -44.95703125 133.8046875 -42.39453125 135.3671875 C-35.70712161 139.31104447 -26.47784164 138.34506069 -18.95703125 137.8046875 C-12.95021399 136.24646743 -8.23352429 133.44040532 -4.890625 128.1015625 C-2.80718335 122.975773 -3.26361285 117.20129157 -3.95703125 111.8046875 C-6.33525438 106.53123622 -9.88722062 103.48870489 -14.95703125 100.8046875 C-14.95703125 100.1446875 -14.95703125 99.4846875 -14.95703125 98.8046875 C-17.59703125 98.1446875 -20.23703125 97.4846875 -22.95703125 96.8046875 C-22.95703125 96.1446875 -22.95703125 95.4846875 -22.95703125 94.8046875 C-23.83029053 94.69294189 -24.7035498 94.58119629 -25.60327148 94.46606445 C-29.00351652 93.79552039 -31.52806271 92.77025626 -34.6171875 91.22265625 C-35.65810547 90.70251953 -36.69902344 90.18238281 -37.77148438 89.64648438 C-38.84333984 89.10056641 -39.91519531 88.55464844 -41.01953125 87.9921875 C-42.09525391 87.45787109 -43.17097656 86.92355469 -44.27929688 86.37304688 C-49.27237221 83.85638832 -53.64809272 81.39755929 -57.95703125 77.8046875 C-59.07592791 77.04561223 -60.20028268 76.29446461 -61.33203125 75.5546875 C-70.16077413 69.21561181 -76.15414335 59.88746138 -78.83203125 49.3671875 C-78.87328125 48.1915625 -78.91453125 47.0159375 -78.95703125 45.8046875 C-78.99441406 44.81597656 -79.03179687 43.82726562 -79.0703125 42.80859375 C-79.3944788 28.05049634 -75.13985959 16.78496626 -64.95703125 5.8046875 C-64.29703125 5.8046875 -63.63703125 5.8046875 -62.95703125 5.8046875 C-62.95703125 5.1446875 -62.95703125 4.4846875 -62.95703125 3.8046875 C-41.86975929 -7.39113215 -22.56290696 -7.6797969 0 0 Z " transform="translate(228.95703125,274.1953125)" style="fill: #04C795;"/><path d="M0 0 C1.010625 0.721875 2.02125 1.44375 3.0625 2.1875 C10.95502426 8.94332919 17.07039833 21.079928 18.27050781 31.3046875 C19.38361967 47.07480863 16.98777496 61.27584834 7 74 C2.78452853 78.7650012 -1.34087028 82.99182473 -7 86 C-7.66 86 -8.32 86 -9 86 C-9 86.66 -9 87.32 -9 88 C-11.22763988 88.81690177 -13.4569486 89.62861872 -15.6875 90.4375 C-16.31333984 90.66759766 -16.93917969 90.89769531 -17.58398438 91.13476562 C-30.47957561 95.79338235 -44.8588957 95.21388352 -57.56640625 89.93359375 C-63.0864418 87.02477502 -68.44969323 83.27061888 -73 79 C-73 78.34 -73 77.68 -73 77 C-73.66 77 -74.32 77 -75 77 C-84.04357947 65.97337057 -88.59601966 54.35057902 -88.4375 40.125 C-88.42920166 39.15973389 -88.42090332 38.19446777 -88.41235352 37.19995117 C-88.04986792 21.88138725 -81.6543917 10.19888378 -70.89453125 -0.5390625 C-68.89858226 -2.07820667 -67.46527446 -2.5954982 -65 -3 C-65 -3.66 -65 -4.32 -65 -5 C-42.80279716 -16.22211527 -19.81475925 -16.02044365 0 0 Z " transform="translate(1033,331)" style="fill: #02C895;"/><path d="M0 0 C9.69497616 7.56681066 11.32282105 19.59971605 13 31 C13.17273438 32.15959229 13.34546875 33.31918457 13.5234375 34.51391602 C14.18642015 39.90229781 14.18135112 45.28433018 14.203125 50.70703125 C14.20882507 51.82704025 14.21452515 52.94704926 14.22039795 54.10099792 C14.22981456 56.46860826 14.2363686 58.83623151 14.24023438 61.20385742 C14.24986632 64.76310256 14.28089202 68.32175124 14.3125 71.88085938 C14.37380779 85.23557446 13.63248283 97.90156691 11 111 C10.78706299 112.12776855 10.57412598 113.25553711 10.35473633 114.41748047 C8.93671198 121.49802527 5.4124221 126.27322062 0 131 C-5.40304337 134.56419248 -13.06584937 133.70702707 -19.1953125 132.60546875 C-25.30027829 130.48378781 -28.46773336 125.09467623 -31.19140625 119.59375 C-37.42044497 104.33145586 -36.31582155 86.89705694 -36.26074219 70.74609375 C-36.25002193 67.00764752 -36.26068839 63.26968169 -36.2734375 59.53125 C-36.29945391 15.12234842 -36.29945391 15.12234842 -24.484375 2.36328125 C-17.95916843 -3.38746899 -7.71925669 -3.76986955 0 0 Z " transform="translate(352,281)" style="fill: #FAFEFD;"/><path d="M0 0 C1.83401367 -0.01836914 1.83401367 -0.01836914 3.70507812 -0.03710938 C4.87876953 -0.03904297 6.05246094 -0.04097656 7.26171875 -0.04296875 C8.32737061 -0.04707764 9.39302246 -0.05118652 10.4909668 -0.05541992 C13.3125 0.1875 13.3125 0.1875 17.3125 2.1875 C8.0725 2.5175 -1.1675 2.8475 -10.6875 3.1875 C-11.0175 3.8475 -11.3475 4.5075 -11.6875 5.1875 C-10.6975 5.5175 -9.7075 5.8475 -8.6875 6.1875 C-9.3475 6.5175 -10.0075 6.8475 -10.6875 7.1875 C-5.7375 8.1775 -5.7375 8.1775 -0.6875 9.1875 C-0.6875 9.5175 -0.6875 9.8475 -0.6875 10.1875 C-1.58210937 10.21328125 -2.47671875 10.2390625 -3.3984375 10.265625 C-10.94993343 10.61985295 -18.11895722 11.12248826 -24.6875 15.1875 C-26.61239341 17.38923201 -27.58325094 18.69231695 -28.1875 21.5625 C-27.64852132 24.39213806 -27.02996735 25.19784997 -25.1875 27.3125 C-22.6875 30.1875 -22.6875 30.1875 -22.6875 33.1875 C-22.0275 33.1875 -21.3675 33.1875 -20.6875 33.1875 C-18.3453113 37.87187739 -19.19854174 44.10460831 -19.6875 49.1875 C-20.79683026 52.24593389 -22.25800585 54.05573798 -24.6875 56.1875 C-25.2340625 56.69023437 -25.780625 57.19296875 -26.34375 57.7109375 C-31.34271871 61.54489232 -36.23695702 61.92117473 -42.4140625 61.68359375 C-47.36039988 60.93396983 -51.6881338 59.22120727 -55.6875 56.1875 C-56.1825 54.7025 -56.1825 54.7025 -56.6875 53.1875 C-57.3475 53.1875 -58.0075 53.1875 -58.6875 53.1875 C-62.58156669 44.42584994 -62.78707128 36.69463306 -59.7265625 27.5703125 C-54.63746723 15.89983086 -43.87805291 9.23923531 -32.6875 4.1875 C-28.7270803 2.88317016 -24.79054052 1.91817845 -20.6875 1.1875 C-19.20443359 0.91099609 -19.20443359 0.91099609 -17.69140625 0.62890625 C-11.83682521 -0.17453817 -5.89654621 0.00313813 0 0 Z " transform="translate(576.6875,268.8125)" style="fill: #09C796;"/><path d="M0 0 C7.7393836 6.69394267 9.13423244 16.02936738 9.87744141 25.82836914 C10.04000455 29.28173083 10.1565418 32.73153965 10.25 36.1875 C10.37375 40.250625 10.4975 44.31375 10.625 48.5 C-3.565 48.5 -17.755 48.5 -32.375 48.5 C-32.375 32.03494962 -32.375 32.03494962 -31.125 24.25 C-30.98932617 23.39519043 -30.85365234 22.54038086 -30.71386719 21.65966797 C-29.19285752 12.66579704 -27.5140044 5.46151944 -20.15625 -0.44140625 C-14.10166679 -4.03963443 -5.74544217 -3.9701651 0 0 Z " transform="translate(878.375,281.5)" style="fill: #FBFEFD;"/><path d="M0 0 C0 15.51 0 31.02 0 47 C-0.66 47 -1.32 47 -2 47 C-2.23976563 47.58394531 -2.47953125 48.16789062 -2.7265625 48.76953125 C-4.25335854 51.44376604 -5.93601503 52.8197723 -8.375 54.6875 C-9.14585937 55.28949219 -9.91671875 55.89148438 -10.7109375 56.51171875 C-16.08582887 60.00631536 -22.79992706 59.74500209 -29 59 C-32.43335224 57.38960964 -34.50816709 55.29984412 -35.875 51.6875 C-35.91625 51.130625 -35.9575 50.57375 -36 50 C-36.66 50 -37.32 50 -38 50 C-40.31005659 42.23820986 -39.52920725 33.58762176 -37 26 C-36.80148437 25.37996094 -36.60296875 24.75992187 -36.3984375 24.12109375 C-32.08083763 13.32709408 -21.12015378 6.40095813 -10.91015625 2.0234375 C-7.17975167 0.71153683 -3.95363935 0 0 0 Z " transform="translate(595,342)" style="fill: #F9FDFD;"/><path d="M0 0 C20.13 0 40.26 0 61 0 C61.33 66 61.66 132 62 200 C59.49607946 197.49607946 59.76154533 196.00168347 59.74183738 192.58573377 C59.74766307 191.82504264 59.75348875 191.06435151 59.75949097 190.28060913 C59.75778212 189.47444047 59.75607327 188.6682718 59.75431263 187.83767378 C59.75100383 185.12134862 59.76204417 182.40526746 59.77294922 179.68896484 C59.77351303 177.74780788 59.77319736 175.80665049 59.77206421 173.86549377 C59.77148853 168.58268577 59.78327754 163.29996791 59.79721212 158.01718092 C59.80968375 152.50117413 59.81088716 146.98516545 59.81326294 141.46914673 C59.81948823 131.01794137 59.8359132 120.56677767 59.85596192 110.11559069 C59.87828834 98.21976679 59.88930614 86.32394093 59.89935279 74.4281013 C59.92027854 49.95203909 59.95696783 25.47603402 60 1 C40.86 1 21.72 1 2 1 C2 2.65 2 4.3 2 6 C3.36125 6.433125 3.36125 6.433125 4.75 6.875 C7.32202908 7.76531776 9.61346766 8.71494413 12 10 C12 10.66 12 11.32 12 12 C11.319375 11.71125 10.63875 11.4225 9.9375 11.125 C6.67106907 9.87402645 3.37153877 8.92552045 0 8 C0 5.36 0 2.72 0 0 Z " transform="translate(422,204)" style="fill: #45BA9C;"/><path d="M0 0 C3 3 3 3 3 24 C-23.4 24 -49.8 24 -77 24 C-76.36487088 35.1766061 -76.36487088 35.1766061 -74 45 C-73.56428871 47.99188422 -73.25952789 50.98811053 -73 54 C-79.1063582 44.8404627 -79 33.59828232 -79 23 C-52.27 23 -25.54 23 2 23 C1.01 14.09 1.01 14.09 0 5 C0 3.35 0 1.7 0 0 Z " transform="translate(926,319)" style="fill: #DFFEFD;"/><path d="M0 0 C2.64 0 5.28 0 8 0 C8 15.51 8 31.02 8 47 C5.03 47 2.06 47 -1 47 C-1.33 45.02 -1.66 43.04 -2 41 C-1.34 41 -0.68 41 0 41 C0 42.32 0 43.64 0 45 C1.98 45 3.96 45 6 45 C6 30.81 6 16.62 6 2 C4.35 2 2.7 2 1 2 C0.67 3.65 0.34 5.3 0 7 C-1.65 7 -3.3 7 -5 7 C-4.0409375 6.6596875 -4.0409375 6.6596875 -3.0625 6.3125 C-0.72806339 5.14749104 -0.72806339 5.14749104 -0.25 2.375 C-0.1675 1.59125 -0.085 0.8075 0 0 Z " transform="translate(243,269)" style="fill: #49C9A8;"/><path d="M0 0 C1.16660156 -0.00386719 2.33320313 -0.00773437 3.53515625 -0.01171875 C4.66050781 -0.01042969 5.78585937 -0.00914062 6.9453125 -0.0078125 C8.47309326 -0.00612061 8.47309326 -0.00612061 10.03173828 -0.00439453 C12.77686066 0.12053376 15.22915224 0.38057903 17.875 1.125 C18.37 2.115 18.37 2.115 18.875 3.125 C19.865 3.455 20.855 3.785 21.875 4.125 C24.875 5.125 24.875 5.125 25.875 7.125 C24.34359375 6.691875 24.34359375 6.691875 22.78125 6.25 C3.46983979 1.16674139 -19.10572633 -0.12883508 -37.16015625 9.79296875 C-39.58451026 11.3637363 -39.58451026 11.3637363 -41.59375 12.98828125 C-43.125 14.125 -43.125 14.125 -45.125 14.125 C-45.125 13.465 -45.125 12.805 -45.125 12.125 C-44.135 12.125 -43.145 12.125 -42.125 12.125 C-42.125 11.135 -42.125 10.145 -42.125 9.125 C-40.805 9.125 -39.485 9.125 -38.125 9.125 C-38.125 8.465 -38.125 7.805 -38.125 7.125 C-36.90941406 6.77566406 -35.69382812 6.42632812 -34.44140625 6.06640625 C-32.85672137 5.6069414 -31.27208863 5.1472967 -29.6875 4.6875 C-28.48383789 4.34235352 -28.48383789 4.34235352 -27.25585938 3.99023438 C-23.38446753 3.13794138 -23.38446753 3.13794138 -20.125 1.125 C-13.4694705 -0.2212752 -6.76501309 -0.02257513 0 0 Z " transform="translate(344.125,266.875)" style="fill: #C8F9F1;"/><path d="M0 0 C0.33 0 0.66 0 1 0 C1.33 8.58 1.66 17.16 2 26 C-12.19 26 -26.38 26 -41 26 C-41 21.38 -41 16.76 -41 12 C-40.67 12 -40.34 12 -40 12 C-40 15.96 -40 19.92 -40 24 C-26.8 24 -13.6 24 0 24 C0 16.08 0 8.16 0 0 Z " transform="translate(887,304)" style="fill: #BFF5EB;"/><path d="M0 0 C0.66 0.33 1.32 0.66 2 1 C1.3125 2.9375 1.3125 2.9375 0 5 C-2.625 5.75 -2.625 5.75 -5 6 C-5 7.32 -5 8.64 -5 10 C19.09 10 43.18 10 68 10 C67.505 6.535 67.505 6.535 67 3 C67.66 3 68.32 3 69 3 C69 5.64 69 8.28 69 11 C43.92 11 18.84 11 -7 11 C-7 8.36 -7 5.72 -7 3 C-4.69631264 1.93347808 -2.35981813 0.93578995 0 0 Z " transform="translate(429,409)" style="fill: #38C39D;"/><path d="M0 0 C0.495 0.99 0.495 0.99 1 2 C-1.15369122 6.30738244 -3.25446186 9.87871822 -7 13 C-7.66 13 -8.32 13 -9 13 C-9.2475 13.598125 -9.495 14.19625 -9.75 14.8125 C-11.7261646 18.27078804 -14.73168361 19.8211224 -18 22 C-19.32 22 -20.64 22 -22 22 C-22 22.99 -22 23.98 -22 25 C-35.44874715 29.59225513 -35.44874715 29.59225513 -43 29 C-43 28.67 -43 28.34 -43 28 C-41.2675 27.7525 -41.2675 27.7525 -39.5 27.5 C-34.58271096 26.41334948 -30.29674535 24.41313648 -25.8125 22.1875 C-25.13574219 21.85621094 -24.45898438 21.52492188 -23.76171875 21.18359375 C-20.41062834 19.47519472 -17.49405093 17.69546567 -14.63671875 15.23828125 C-12 13 -12 13 -10 13 C-9.773125 12.46375 -9.54625 11.9275 -9.3125 11.375 C-7.54429911 8.17539839 -5.46329797 5.70962777 -3 3 C-2.34 3 -1.68 3 -1 3 C-0.67 2.01 -0.34 1.02 0 0 Z " transform="translate(398,395)" style="fill: #C4F6EC;"/><path d="M0 0 C0 0.33 0 0.66 0 1 C-1.77697266 0.76023437 -1.77697266 0.76023437 -3.58984375 0.515625 C-10.23682625 -0.21787101 -16.88161597 -0.22291076 -23.5625 -0.25 C-25.47579102 -0.2809375 -25.47579102 -0.2809375 -27.42773438 -0.3125 C-34.34056778 -0.34119884 -39.7524585 -0.05812909 -46 3 C-46.33 3.33 -46.66 3.66 -47 4 C-48.66617115 4.04063832 -50.33388095 4.042721 -52 4 C-52.33 4.99 -52.66 5.98 -53 7 C-53 6.34 -53 5.68 -53 5 C-55.64 5.66 -58.28 6.32 -61 7 C-57.5859407 3.25623404 -53.67454245 1.76874579 -49 0 C-48.20335937 -0.30421875 -47.40671875 -0.6084375 -46.5859375 -0.921875 C-32.30695358 -5.38669003 -14.16545693 -4.64804055 0 0 Z " transform="translate(365,272)" style="fill: #25C198;"/><path d="M0 0 C1.14121071 3.65996869 0.5068676 5.82657206 -0.50195312 9.49755859 C-1.56906997 14.85929766 -1.28455376 20.36740404 -1.25 25.8125 C-1.25773438 27.01970703 -1.26546875 28.22691406 -1.2734375 29.47070312 C-1.25279526 39.01257709 0.00589557 47.85871247 2.5 57.0625 C2.7371875 57.96097656 2.974375 58.85945313 3.21875 59.78515625 C3.88002666 62.16777463 3.88002666 62.16777463 6 64 C6 64.99 6 65.98 6 67 C6.66 67 7.32 67 8 67 C8.33 68.98 8.66 70.96 9 73 C0.99772476 65.64718478 -0.71774203 54.13591039 -3 44 C-3.17797119 43.35659668 -3.35594238 42.71319336 -3.53930664 42.05029297 C-4.39270812 38.25227196 -4.19107777 34.37686973 -4.1875 30.5 C-4.18669434 29.6037793 -4.18588867 28.70755859 -4.18505859 27.78417969 C-4.09673644 18.18650618 -2.48932438 9.24606199 0 0 Z " transform="translate(667,320)" style="fill: #41C5A2;"/><path d="M0 0 C4.40147657 0.50302589 6.75395419 2.02445801 10 5 C10.33 5.66 10.66 6.32 11 7 C14.02934491 7.65772428 14.02934491 7.65772428 17 8 C17 8.66 17 9.32 17 10 C17.9590625 10.1546875 17.9590625 10.1546875 18.9375 10.3125 C22.32987386 11.07405332 25.5344199 12.14364641 28.81640625 13.28125 C32.82508279 14.60074281 36.40930825 15.15885722 40.640625 15.31640625 C41.71054687 15.35830078 42.78046875 15.40019531 43.8828125 15.44335938 C44.99398437 15.48267578 46.10515625 15.52199219 47.25 15.5625 C48.37664063 15.60568359 49.50328125 15.64886719 50.6640625 15.69335938 C53.44258954 15.79932015 56.22120391 15.90139142 59 16 C59 16.33 59 16.66 59 17 C42.39829294 21.00620344 24.81337727 16.76008928 10 9 C6.39167727 6.60012498 3.05624371 4.0787713 0 1 C0 0.67 0 0.34 0 0 Z " transform="translate(687,407)" style="fill: #36C39D;"/><path d="M0 0 C0 15.51 0 31.02 0 47 C-0.66 47 -1.32 47 -2 47 C-2 32.15 -2 17.3 -2 2 C-6.455 3.485 -6.455 3.485 -11 5 C-12.32 4.67 -13.64 4.34 -15 4 C-9.93448224 1.71555081 -5.63745903 0 0 0 Z " transform="translate(595,342)" style="fill: #C1FCF1;"/><path d="M0 0 C0.66 0 1.32 0 2 0 C1.855625 0.804375 1.71125 1.60875 1.5625 2.4375 C-1.02717361 18.83876618 -1.15261726 35.68340074 2 52 C2.38411101 54.99691006 2.69428823 57.99383426 3 61 C-0.81530321 57.18469679 -1.25994972 52.97703895 -1.5625 47.75 C-1.47246008 44.05896881 -1.47246008 44.05896881 -3 41 C-3.97905518 27.2546587 -3.69239902 13.31901075 0 0 Z " transform="translate(710,305)" style="fill: #32C29D;"/><path d="M0 0 C1.1238208 0.00257813 2.2476416 0.00515625 3.40551758 0.0078125 C17.53276297 0.25794447 17.53276297 0.25794447 24.0625 2.4375 C24.7225 3.4275 25.3825 4.4175 26.0625 5.4375 C25.3506958 5.29675049 24.6388916 5.15600098 23.90551758 5.01098633 C16.13333434 3.58107603 8.64432941 3.08945775 0.75 3.125 C-0.42828369 3.12556396 -1.60656738 3.12612793 -2.82055664 3.12670898 C-10.58143511 3.20844743 -17.71678951 3.90573408 -25.21484375 5.87890625 C-27.92973723 6.43590735 -29.36571642 6.3732574 -31.9375 5.4375 C-21.26377195 1.53077601 -11.38978044 -0.03757712 0 0 Z " transform="translate(575.9375,266.5625)" style="fill: #D2FDF7;"/><path d="M0 0 C19.8 0 39.6 0 60 0 C60 0.33 60 0.66 60 1 C40.86 1 21.72 1 2 1 C2 2.65 2 4.3 2 6 C3.36125 6.433125 3.36125 6.433125 4.75 6.875 C7.32202908 7.76531776 9.61346766 8.71494413 12 10 C12 10.66 12 11.32 12 12 C11.319375 11.71125 10.63875 11.4225 9.9375 11.125 C6.67106907 9.87402645 3.37153877 8.92552045 0 8 C0 5.36 0 2.72 0 0 Z " transform="translate(422,204)" style="fill: #2CBB93;"/><path d="M0 0 C2.92810006 -0.06809535 5.57457686 -0.09817457 8.4375 0.5625 C11.78749694 1.1344507 14.67459803 0.58683564 18 0 C13.91475878 4.55759724 8.76435339 5.70060029 2.77148438 6.17724609 C0.26251714 6.29607608 -2.23837609 6.35120111 -4.75 6.375 C-5.97396484 6.39566528 -5.97396484 6.39566528 -7.22265625 6.41674805 C-12.20245777 6.37854376 -15.69730987 5.77374678 -20 3 C-20.33 2.34 -20.66 1.68 -21 1 C-13.25 1.875 -13.25 1.875 -11 3 C-11 3.66 -11 4.32 -11 5 C-4.565 4.505 -4.565 4.505 2 4 C1.34 2.68 0.68 1.36 0 0 Z " transform="translate(625,418)" style="fill: #05C794;"/><path d="M0 0 C1.50050978 0.28903262 3.00037738 0.58139919 4.5 0.875 C5.75296875 1.11863281 5.75296875 1.11863281 7.03125 1.3671875 C10 2 10 2 13.59375 3.0546875 C19.01876274 4.42374761 24.43641332 4.29131376 30 4.25 C31.0415625 4.25773437 32.083125 4.26546875 33.15625 4.2734375 C37.77721249 4.2617684 42.02883461 4.15144548 46.5 2.921875 C49.89130124 2.02863048 50.84392547 2.0119964 54 3 C44.24404937 9.50396708 26.35759514 8.21864939 15.125 6.125 C12.14408611 5.45189041 9.71873955 4.37548878 7 3 C4.6756398 2.30269194 2.34326294 1.63087848 0 1 C0 0.67 0 0.34 0 0 Z " transform="translate(176,419)" style="fill: #DAFEFA;"/><path d="M0 0 C-9.8678873 8.13587936 -24.94099412 6.72225853 -37 6 C-40.73951996 5.5498726 -44.3570763 4.95552097 -48 4 C-48 3.67 -48 3.34 -48 3 C-47.08822998 3.01571045 -46.17645996 3.0314209 -45.23706055 3.04760742 C-41.80210499 3.0992265 -38.36757113 3.13658515 -34.93237305 3.16479492 C-33.45541819 3.17973313 -31.97850651 3.20009131 -30.50170898 3.22631836 C-22.45168594 3.36553544 -15.03324843 3.28148451 -7.30786133 0.6496582 C-4.7783913 -0.06238239 -2.61490881 -0.1104646 0 0 Z " transform="translate(368,419)" style="fill: #3DC6A2;"/><path d="M0 0 C2.97 0 5.94 0 9 0 C9 0.66 9 1.32 9 2 C6.36 1.67 3.72 1.34 1 1 C1 17.5 1 34 1 51 C3.97 50.505 3.97 50.505 7 50 C7 48.68 7 47.36 7 46 C8.98 45.505 8.98 45.505 11 45 C9.125 49.75 9.125 49.75 8 52 C5.36 52 2.72 52 0 52 C0 34.84 0 17.68 0 0 Z " transform="translate(150,372)" style="fill: #21BC93;"/><path d="M0 0 C2.125 0.375 2.125 0.375 4 1 C3.01 1.495 3.01 1.495 2 2 C2 2.66 2 3.32 2 4 C1.01 4.495 1.01 4.495 0 5 C0.226875 5.763125 0.45375 6.52625 0.6875 7.3125 C0.790625 8.199375 0.89375 9.08625 1 10 C-0.4375 11.8125 -0.4375 11.8125 -2 13 C-2.33 12.34 -2.66 11.68 -3 11 C-3.99 11 -4.98 11 -6 11 C-6 11.66 -6 12.32 -6 13 C-8.64 13 -11.28 13 -14 13 C-10.78105326 9.64693048 -7.31805468 6.62201707 -3.8046875 3.5859375 C-2.49559495 2.43552284 -1.23231027 1.23231027 0 0 Z " transform="translate(786,386)" style="fill: #18CA9B;"/><path d="M0 0 C0.99 0 1.98 0 3 0 C3 0.66 3 1.32 3 2 C6.3 2.66 9.6 3.32 13 4 C13 4.66 13 5.32 13 6 C23.56 6.66 34.12 7.32 45 8 C45 8.33 45 8.66 45 9 C32.15888724 10.27337199 20.65492857 9.48328421 8 7 C8 6.34 8 5.68 8 5 C5.36 4.34 2.72 3.68 0 3 C0 2.01 0 1.02 0 0 Z " transform="translate(307,417)" style="fill: #E0FEFD;"/><path d="M0 0 C0.66 0 1.32 0 2 0 C1.67773438 1.09957031 1.35546875 2.19914062 1.0234375 3.33203125 C-0.24878263 8.45356165 -0.38228457 13.42940838 -0.375 18.6875 C-0.37693359 20.13636597 -0.37693359 20.13636597 -0.37890625 21.61450195 C-0.27741754 28.50362445 0.65974834 34.17399304 3.125 40.63671875 C4 43 4 43 4 46 C0.80694493 43.71482488 -0.71185977 42.26158063 -1.60009766 38.37255859 C-1.94518145 35.14263634 -2.15674738 31.93203341 -2.3125 28.6875 C-2.38533203 27.58470703 -2.45816406 26.48191406 -2.53320312 25.34570312 C-3.59604899 8.39078098 -3.59604899 8.39078098 0 0 Z " transform="translate(946,352)" style="fill: #BFF7EC;"/><path d="M0 0 C2.49336211 3.74004317 2.25481228 6.62561609 2.1953125 10.94921875 C2.1924826 11.72183548 2.18965271 12.49445221 2.18673706 13.29048157 C2.17554878 15.75631243 2.15044703 18.22177906 2.125 20.6875 C2.11496843 22.36002079 2.10584289 24.03254728 2.09765625 25.70507812 C2.07561392 29.80352559 2.04109363 33.90170106 2 38 C-1.3 38.66 -4.6 39.32 -8 40 C-8 39.34 -8 38.68 -8 38 C-5.69 37.01 -3.38 36.02 -1 35 C-0.09710143 23.31068812 0.11465457 11.72024504 0 0 Z " transform="translate(593,293)" style="fill: #D0FBF5;"/><path d="M0 0 C1.32 0.33 2.64 0.66 4 1 C4 5 4 5 3 7 C2.34 7 1.68 7 1 7 C0.74476563 7.58265625 0.48953125 8.1653125 0.2265625 8.765625 C-1.11741087 11.21388223 -2.61810296 12.81743248 -4.625 14.75 C-5.57246094 15.67039062 -5.57246094 15.67039062 -6.5390625 16.609375 C-7.02117188 17.06828125 -7.50328125 17.5271875 -8 18 C-8.66 17.01 -9.32 16.02 -10 15 C-9.67 14.34 -9.34 13.68 -9 13 C-7.68 13 -6.36 13 -5 13 C-5.33 11.68 -5.66 10.36 -6 9 C-5.34 8.5875 -4.68 8.175 -4 7.75 C-3.34 7.1725 -2.68 6.595 -2 6 C-2 4.68 -2 3.36 -2 2 C-1.34 2 -0.68 2 0 2 C0 1.34 0 0.68 0 0 Z " transform="translate(788,388)" style="fill: #14C293;"/><path d="M0 0 C0.495 0.99 0.495 0.99 1 2 C-0.155 1.835 -1.31 1.67 -2.5 1.5 C-13.40757334 0.31289817 -24.29873226 0.46071613 -35 3 C-35 2.01 -35 1.02 -35 0 C-10.50399886 -4.47356049 -10.50399886 -4.47356049 0 0 Z " transform="translate(883,269)" style="fill: #C6FBF1;"/><path d="M0 0 C0.99 0 1.98 0 3 0 C4.87133935 2.40600774 6 4.03113628 6 7.125 C4.58381342 9.78034983 2.62782417 10.65239786 0 12 C-0.99 11.34 -1.98 10.68 -3 10 C-2.67 8.35 -2.34 6.7 -2 5 C-1.01 5 -0.02 5 1 5 C1 4.34 1 3.68 1 3 C-0.32 3.33 -1.64 3.66 -3 4 C-1.6875 2 -1.6875 2 0 0 Z " transform="translate(651,400)" style="fill: #11C596;"/><path d="M0 0 C0 0.66 0 1.32 0 2 C-2.22763988 2.81690177 -4.4569486 3.62861872 -6.6875 4.4375 C-7.62625977 4.78264648 -7.62625977 4.78264648 -8.58398438 5.13476562 C-14.38769983 7.23139581 -19.27311521 8.13952152 -25.4375 8.125 C-26.52933594 8.12757813 -27.62117187 8.13015625 -28.74609375 8.1328125 C-31.91192524 8.00359489 -34.89035545 7.59097317 -38 7 C-38 6.67 -38 6.34 -38 6 C-37.38592285 5.9906543 -36.7718457 5.98130859 -36.13916016 5.97167969 C-33.30035567 5.91730259 -30.46308268 5.83379448 -27.625 5.75 C-26.17673828 5.72873047 -26.17673828 5.72873047 -24.69921875 5.70703125 C-15.81702911 5.4089712 -8.35773211 0 0 0 Z " transform="translate(1024,417)" style="fill: #3DC4A0;"/><path d="M0 0 C0.33 0 0.66 0 1 0 C1.01981934 0.67466309 1.03963867 1.34932617 1.06005859 2.04443359 C1.1563811 5.15495861 1.2656181 8.26490789 1.375 11.375 C1.4059375 12.43589844 1.436875 13.49679687 1.46875 14.58984375 C1.68767925 20.53742165 2.23942041 26.08396826 3.68212891 31.86572266 C4.03157658 34.21201416 3.7237653 35.76007666 3 38 C-2.37344393 26.19761423 -2.52791841 12.61903986 0 0 Z " transform="translate(268,336)" style="fill: #C0F8ED;"/><path d="M0 0 C1 3 1 3 1 6 C0.16597656 6.23074219 -0.66804687 6.46148437 -1.52734375 6.69921875 C-10.36436452 9.26023393 -17.70245114 12.39275199 -25 18 C-25 17.01 -25 16.02 -25 15 C-24.34 15 -23.68 15 -23 15 C-23 14.34 -23 13.68 -23 13 C-21.68 12.67 -20.36 12.34 -19 12 C-19 11.34 -19 10.68 -19 10 C-18.13117187 9.69707031 -17.26234375 9.39414062 -16.3671875 9.08203125 C-10.01815486 6.77393773 -4.807223 4.807223 0 0 Z " transform="translate(594,336)" style="fill: #20C298;"/><path d="M0 0 C1.984375 0.08203125 1.984375 0.08203125 2.984375 1.08203125 C5.31255464 1.44963856 7.6462135 1.78444706 9.984375 2.08203125 C9.984375 2.41203125 9.984375 2.74203125 9.984375 3.08203125 C8.80633301 3.05061035 8.80633301 3.05061035 7.60449219 3.01855469 C3.98125464 2.93444191 0.35822352 2.88307137 -3.265625 2.83203125 C-5.11800781 2.78175781 -5.11800781 2.78175781 -7.0078125 2.73046875 C-14.55523535 2.65102219 -20.65451266 3.49520068 -27.71386719 6.21582031 C-30.015625 7.08203125 -30.015625 7.08203125 -32.015625 7.08203125 C-31.015625 4.08203125 -31.015625 4.08203125 -29.29199219 3.15698242 C-23.56144718 1.30767054 -18.27198834 0.56217297 -12.265625 0.39453125 C-11.03005859 0.34329102 -11.03005859 0.34329102 -9.76953125 0.29101562 C-6.51370677 0.16256522 -3.25710318 0.08859996 0 0 Z " transform="translate(206.015625,266.91796875)" style="fill: #CAFCF4;"/><path d="M0 0 C0.33 0 0.66 0 1 0 C1.45128757 7.52145952 1.62197829 13.75732802 -3 20 C-5.6912665 22.76027333 -6.96359816 23.90787539 -10.8125 24.25 C-11.534375 24.1675 -12.25625 24.085 -13 24 C-13 23.34 -13 22.68 -13 22 C-11.02 21.34 -9.04 20.68 -7 20 C-7 19.34 -7 18.68 -7 18 C-6.34 18 -5.68 18 -5 18 C-4.566875 16.88625 -4.566875 16.88625 -4.125 15.75 C-3 13 -3 13 -1.96875 11.125 C-0.89103379 8.76097734 -0.60264981 6.83003113 -0.375 4.25 C-0.30023437 3.45078125 -0.22546875 2.6515625 -0.1484375 1.828125 C-0.09945312 1.22484375 -0.05046875 0.6215625 0 0 Z " transform="translate(789,300)" style="fill: #CDFBF3;"/><path d="M0 0 C2.42908366 2.42908366 2.43340892 3.59129541 2.9375 6.9375 C4.21144671 17.26830735 4.21144671 17.26830735 9 26 C9 26.99 9 27.98 9 29 C9.66 29 10.32 29 11 29 C11.33 30.98 11.66 32.96 12 35 C5.93599474 29.42814589 3.65015097 21.51402947 1.6875 13.75 C1.43045288 12.74030151 1.43045288 12.74030151 1.16821289 11.71020508 C0.22440991 7.7340481 -0.17109395 4.08090754 0 0 Z " transform="translate(664,358)" style="fill: #28BF95;"/><path d="M0 0 C6.42319655 5.68911694 11.07709837 13.34612533 12 22 C12.20319538 27.33353768 12.11653219 32.66541511 12 38 C11.67 38 11.34 38 11 38 C10.95101563 37.21238281 10.90203125 36.42476563 10.8515625 35.61328125 C10.30556167 27.65861404 9.32521452 19.861224 8 12 C7.34 12 6.68 12 6 12 C4.4921875 9.8828125 4.4921875 9.8828125 2.875 7.125 C2.33617187 6.22007812 1.79734375 5.31515625 1.2421875 4.3828125 C0 2 0 2 0 0 Z " transform="translate(246,346)" style="fill: #3CC7A3;"/><path d="M0 0 C0.95197266 -0.020625 1.90394531 -0.04125 2.88476562 -0.0625 C9.27508368 -0.09730092 15.62541034 0.34734612 21.4375 3.25 C21.9325 4.735 21.9325 4.735 22.4375 6.25 C21.42171875 5.96125 20.4059375 5.6725 19.359375 5.375 C8.06193616 2.28198168 -1.91509228 1.45809112 -13.5625 3.25 C-13.5625 2.59 -13.5625 1.93 -13.5625 1.25 C-9.086234 -0.24208867 -4.68957925 0.02469824 0 0 Z " transform="translate(997.5625,316.75)" style="fill: #C7F9F0;"/><path d="M0 0 C0.33 0.66 0.66 1.32 1 2 C-0.61594832 4.04119788 -2.2856382 6.04072937 -4 8 C-4.66 8 -5.32 8 -6 8 C-6.28875 8.763125 -6.5775 9.52625 -6.875 10.3125 C-8 13 -8 13 -10 16 C-10.66 16 -11.32 16 -12 16 C-12.33 16.99 -12.66 17.98 -13 19 C-13.66 19 -14.32 19 -15 19 C-12.47774196 10.92877429 -6.50288594 5.07917719 0 0 Z " transform="translate(826,284)" style="fill: #2FC69C;"/><path d="M0 0 C0.33 0 0.66 0 1 0 C1.02902429 3.27081471 1.04680684 6.5415963 1.0625 9.8125 C1.07087891 10.74126953 1.07925781 11.67003906 1.08789062 12.62695312 C1.09111328 13.51962891 1.09433594 14.41230469 1.09765625 15.33203125 C1.10289307 16.15421143 1.10812988 16.9763916 1.11352539 17.82348633 C1 20 1 20 0 23 C-0.66 23 -1.32 23 -2 23 C-2.01417969 23.61488281 -2.02835938 24.22976563 -2.04296875 24.86328125 C-2.18882744 27.33499473 -2.39493183 29.59677148 -3 32 C-5.5625 34.0625 -5.5625 34.0625 -8 35 C-6.87548273 32.0280615 -5.77706209 29.66559313 -4 27 C-0.97619266 18.14559765 -0.36712861 9.26683242 0 0 Z " transform="translate(1051,365)" style="fill: #B4F5E8;"/><path d="M0 0 C6.60690403 0.76233508 6.60690403 0.76233508 8.69921875 2.02734375 C12.25691701 3.5313622 15.74368288 3.24872998 19.5625 3.1875 C20.33013672 3.18685547 21.09777344 3.18621094 21.88867188 3.18554688 C25.17078681 3.15979358 27.86739037 3.04420321 31 2 C33.33299825 1.96045766 35.66708189 1.95598268 38 2 C29.06466305 6.78678765 16.11308803 6.54514035 6.4609375 4.10546875 C4.20699429 3.18635358 2.09529316 2.23512018 0 1 C0 0.67 0 0.34 0 0 Z " transform="translate(526,419)" style="fill: #29BF97;"/><path d="M0 0 C0.33 0 0.66 0 1 0 C1.0814222 2.22855574 1.13938079 4.45797655 1.1875 6.6875 C1.23970703 8.54955078 1.23970703 8.54955078 1.29296875 10.44921875 C0.89099189 15.32117835 -0.83346849 17.76484899 -4.125 21.25 C-7.99910885 23.60815321 -11.53464167 23.80543101 -16 24 C-13.61069411 22.40712941 -11.65777786 21.41337602 -9.0625 20.3125 C-5.57390601 18.55537729 -3.46375546 16.75589207 -1.67578125 13.1484375 C-0.33220848 8.87696339 -0.16097625 4.45099335 0 0 Z " transform="translate(226,389)" style="fill: #38C7A2;"/><path d="M0 0 C0 0.66 0 1.32 0 2 C-1.65788785 3.34423339 -3.32576317 4.67618483 -5 6 C-5.495 6.680625 -5.99 7.36125 -6.5 8.0625 C-8.36180624 10.46733306 -10.30986409 11.62044312 -13 13 C-13.66 13 -14.32 13 -15 13 C-15 13.66 -15 14.32 -15 15 C-15.66 14.67 -16.32 14.34 -17 14 C-15.92173635 12.72486237 -14.83714481 11.45507431 -13.75 10.1875 C-13.14671875 9.47980469 -12.5434375 8.77210938 -11.921875 8.04296875 C-10.06188786 6.0657873 -8.26896456 4.48607803 -6 3 C-5.34 3 -4.68 3 -4 3 C-4 2.34 -4 1.68 -4 1 C-2 0 -2 0 0 0 Z " transform="translate(972,325)" style="fill: #27C49B;"/><path d="M0 0 C0 0.66 0 1.32 0 2 C-1.72093476 3.32103086 -3.53298055 4.4347959 -5.37109375 5.5859375 C-7.35344189 7.30682485 -7.4729632 8.48882464 -8 11 C-9.32467746 11.6837045 -10.65863633 12.34964186 -12 13 C-12.68268138 14.32520503 -13.3507041 15.65812182 -14 17 C-14.99 17.33 -15.98 17.66 -17 18 C-15.65686815 14.21908383 -13.97035316 11.34348084 -11.5 8.1875 C-10.8915625 7.39730469 -10.283125 6.60710937 -9.65625 5.79296875 C-8.83640625 4.90544922 -8.83640625 4.90544922 -8 4 C-7.34 4 -6.68 4 -6 4 C-6 3.34 -6 2.68 -6 2 C-2.25 0 -2.25 0 0 0 Z " transform="translate(172,276)" style="fill: #27C099;"/><path d="M0 0 C4.86403932 7.29605898 5.14928806 15.49058032 5 24 C4.34 24 3.68 24 3 24 C2.92652344 23.04287109 2.92652344 23.04287109 2.8515625 22.06640625 C2.77679687 21.24011719 2.70203125 20.41382813 2.625 19.5625 C2.55539062 18.73878906 2.48578125 17.91507812 2.4140625 17.06640625 C2.27742187 16.38449219 2.14078125 15.70257813 2 15 C1.34 14.67 0.68 14.34 0 14 C0 9.38 0 4.76 0 0 Z " transform="translate(922,308)" style="fill: #23C398;"/><path d="M0 0 C2.31 0 4.62 0 7 0 C7 0.66 7 1.32 7 2 C13.27 2 19.54 2 26 2 C19.68338199 5.158309 12.15499895 5.04176061 5.3046875 3.32421875 C3.125 2.5 3.125 2.5 0 1 C0 0.67 0 0.34 0 0 Z " transform="translate(738,399)" style="fill: #C1F9EE;"/><path d="M0 0 C0 0.33 0 0.66 0 1 C-1.04800781 1.09087891 -1.04800781 1.09087891 -2.1171875 1.18359375 C-3.02726563 1.26738281 -3.93734375 1.35117187 -4.875 1.4375 C-5.77992188 1.51871094 -6.68484375 1.59992188 -7.6171875 1.68359375 C-10.01110861 1.86989285 -10.01110861 1.86989285 -12 3 C-14.204364 3.22950319 -16.41392173 3.41075933 -18.625 3.5625 C-19.81351563 3.64628906 -21.00203125 3.73007812 -22.2265625 3.81640625 C-23.14179687 3.87699219 -24.05703125 3.93757813 -25 4 C-25 4.66 -25 5.32 -25 6 C-26.65 6.66 -28.3 7.32 -30 8 C-30.66 7.34 -31.32 6.68 -32 6 C-21.54251965 0.68088654 -11.63130073 -0.36538117 0 0 Z " transform="translate(1004,318)" style="fill: #33C49B;"/><path d="M0 0 C0.12117187 0.58007812 0.24234375 1.16015625 0.3671875 1.7578125 C1.33735474 6.28028442 2.43397783 10.63750966 4 15 C1.01380463 12.44040397 -0.48551562 9.6059152 -2 6 C-2.1875 3.125 -2.1875 3.125 -2 1 C-2.61875 1.495 -3.2375 1.99 -3.875 2.5 C-6 4 -6 4 -8 4 C-8.33 4.66 -8.66 5.32 -9 6 C-9 4.68 -9 3.36 -9 2 C-8.34 2 -7.68 2 -7 2 C-7 1.34 -7 0.68 -7 0 C-3.86650268 -1.04449911 -3.01031744 -0.93423645 0 0 Z " transform="translate(598,402)" style="fill: #29C199;"/><path d="M0 0 C0.33 0 0.66 0 1 0 C1.65930781 9.90426838 0.54230933 17.14249681 -4 26 C-4.66 26 -5.32 26 -6 26 C-5.81824219 25.37996094 -5.63648438 24.75992187 -5.44921875 24.12109375 C-3.18704977 16.15129841 -1.5476472 8.13337994 0 0 Z " transform="translate(364,380)" style="fill: #3AC8A1;"/><path d="M0 0 C1.32 0.33 2.64 0.66 4 1 C3.52949219 1.4846875 3.05898438 1.969375 2.57421875 2.46875 C-1.77209077 7.14800662 -4.07661736 10.92616007 -6 17 C-6.63960014 18.3465266 -7.289999 19.68922893 -8 21 C-8.19294408 16.17639811 -7.75747614 12.50353262 -6 8 C-5.34 8 -4.68 8 -4 8 C-3.896875 7.4225 -3.79375 6.845 -3.6875 6.25 C-2.90207202 3.67950842 -1.69495803 2.06342716 0 0 Z " transform="translate(523,283)" style="fill: #CFFBF4;"/><path d="M0 0 C1 3 1 3 0.22265625 5.04296875 C-0.16019531 5.75066406 -0.54304687 6.45835937 -0.9375 7.1875 C-1.31777344 7.90292969 -1.69804688 8.61835938 -2.08984375 9.35546875 C-2.39019531 9.89816406 -2.69054687 10.44085938 -3 11 C-3.66 11 -4.32 11 -5 11 C-6.52299523 13.93720508 -7.80100302 16.9168649 -9 20 C-10.32 19.34 -11.64 18.68 -13 18 C-12.09507812 16.93072266 -12.09507812 16.93072266 -11.171875 15.83984375 C-6.92895159 10.75517908 -3.01788916 5.90456574 0 0 Z " transform="translate(929,384)" style="fill: #C6F7EE;"/><path d="M0 0 C3.37462715 0.54723683 5.08235 1.0549 8 3 C6.92598892 5.91517292 6.22189824 7.77810176 4 10 C3.67 8.02 3.34 6.04 3 4 C0.69 4.33 -1.62 4.66 -4 5 C-2.68 3.35 -1.36 1.7 0 0 Z " transform="translate(921,381)" style="fill: #1AC294;"/><path d="M0 0 C2.10407096 1.69636171 2.93240678 2.54981464 3.34057617 5.26831055 C3.32486572 6.13238525 3.30915527 6.99645996 3.29296875 7.88671875 C3.28330078 8.82451172 3.27363281 9.76230469 3.26367188 10.72851562 C3.23853516 11.70498047 3.21339844 12.68144531 3.1875 13.6875 C3.17396484 14.67556641 3.16042969 15.66363281 3.14648438 16.68164062 C3.11112661 19.12132617 3.05731962 21.56073163 3 24 C0.03 24 -2.94 24 -6 24 C-6 23.67 -6 23.34 -6 23 C-3.36 23 -0.72 23 2 23 C1.855625 21.75863281 1.71125 20.51726562 1.5625 19.23828125 C1.37485311 17.59637095 1.18736126 15.95444292 1 14.3125 C0.90460937 13.49587891 0.80921875 12.67925781 0.7109375 11.83789062 C0.26129478 7.87139948 -0.13034543 3.99997537 0 0 Z " transform="translate(926,319)" style="fill: #D0FAF4;"/><path d="M0 0 C2.68656601 2.20317005 3.89617725 3.35049382 4.45410156 6.84082031 C4.4331543 7.90913086 4.41220703 8.97744141 4.390625 10.078125 C4.37773437 11.23828125 4.36484375 12.3984375 4.3515625 13.59375 C4.31804687 14.8003125 4.28453125 16.006875 4.25 17.25 C4.23195313 18.47203125 4.21390625 19.6940625 4.1953125 20.953125 C4.148181 23.96954078 4.08239413 26.98437491 4 30 C3.67 30 3.34 30 3 30 C2.94465088 29.30438965 2.88930176 28.6087793 2.83227539 27.89208984 C2.57833145 24.71950822 2.32045179 21.54725817 2.0625 18.375 C1.97548828 17.28058594 1.88847656 16.18617188 1.79882812 15.05859375 C1.66831055 13.46337891 1.66831055 13.46337891 1.53515625 11.8359375 C1.456604 10.86188965 1.37805176 9.8878418 1.29711914 8.88427734 C0.98912062 5.89438866 0.52387687 2.95904078 0 0 Z " transform="translate(410,322)" style="fill: #C8FCF2;"/><path d="M0 0 C0.33 0 0.66 0 1 0 C0.54582332 5.94015295 -0.33161672 11.26493248 -2 17 C-2.43296522 19.99227077 -2.74047081 22.98809542 -3 26 C-3.33 26 -3.66 26 -4 26 C-4.25606838 16.79576445 -4.39266432 8.28700118 0 0 Z " transform="translate(154,294)" style="fill: #35C69F;"/><path d="M0 0 C7.75 0.875 7.75 0.875 10 2 C10 2.66 10 3.32 10 4 C15.28 4 20.56 4 26 4 C26 4.33 26 4.66 26 5 C22.95778935 5.08132642 19.9177762 5.14065374 16.875 5.1875 C15.59109375 5.22520508 15.59109375 5.22520508 14.28125 5.26367188 C9.09127372 5.32355622 5.47453877 4.95205194 1 2 C0.67 1.34 0.34 0.68 0 0 Z " transform="translate(604,419)" style="fill: #20BD93;"/><path d="M0 0 C-0.99 0 -1.98 0 -3 0 C-3 0.66 -3 1.32 -3 2 C-5.70183055 3.35091528 -8.11808206 3.33858058 -11.125 3.5625 C-12.22070312 3.64628906 -13.31640625 3.73007812 -14.4453125 3.81640625 C-15.28835938 3.87699219 -16.13140625 3.93757813 -17 4 C-17 3.01 -17 2.02 -17 1 C-14.4999744 -0.2500128 -12.40727807 -0.36392833 -9.625 -0.625 C-8.66851563 -0.72039062 -7.71203125 -0.81578125 -6.7265625 -0.9140625 C-4.21530604 -0.99321385 -2.37698275 -0.75477651 0 0 Z " transform="translate(895,401)" style="fill: #20C399;"/><path d="M0 0 C0.81726563 0.65484375 1.63453125 1.3096875 2.4765625 1.984375 C6.37886218 4.58590812 9.81271972 4.46450142 14.375 4.25 C15.11105469 4.23195313 15.84710937 4.21390625 16.60546875 4.1953125 C18.40421736 4.14859176 20.20228711 4.07686183 22 4 C20.8984375 5.4765625 20.8984375 5.4765625 19 7 C16.0390625 7.3984375 16.0390625 7.3984375 12.625 7.375 C10.94277344 7.38660156 10.94277344 7.38660156 9.2265625 7.3984375 C5.71128469 6.9643475 3.80994544 6.12158586 1 4 C0.1875 1.8125 0.1875 1.8125 0 0 Z " transform="translate(560,396)" style="fill: #21BF94;"/><path d="M0 0 C0.8125 1.6875 0.8125 1.6875 1 4 C-1.25 6.4375 -1.25 6.4375 -4 9 C-6.01585408 11.95178633 -7.3479478 14.47891813 -8 18 C-8.66 18 -9.32 18 -10 18 C-9.45660208 13.43545749 -8.20536179 10.0271824 -6 6 C-5.34 6 -4.68 6 -4 6 C-3.566875 5.071875 -3.566875 5.071875 -3.125 4.125 C-2 2 -2 2 0 0 Z " transform="translate(521,362)" style="fill: #39C59F;"/><path d="M0 0 C0.66 0 1.32 0 2 0 C2 2.64 2 5.28 2 8 C3.051875 8.103125 4.10375 8.20625 5.1875 8.3125 C8.87430754 8.97733415 10.96638599 9.88566296 14 12 C13.67 12.66 13.34 13.32 13 14 C11.96875 13.505 10.9375 13.01 9.875 12.5 C6.47548422 11.02526098 3.72978451 10.72708894 0 11 C0 7.37 0 3.74 0 0 Z " transform="translate(420,204)" style="fill: #D8FCF8;"/><path d="M0 0 C0.99 0.33 1.98 0.66 3 1 C3 1.66 3 2.32 3 3 C3.66 3 4.32 3 5 3 C7.93963285 9.41374439 10.44985251 15.80235987 10 23 C7.99577096 19.99365644 7.04899172 17.48149926 5.9375 14.0625 C5.59589844 13.02222656 5.25429688 11.98195313 4.90234375 10.91015625 C4.19054327 8.61452267 3.5467055 6.33899777 3 4 C2.34 4 1.68 4 1 4 C0.67 2.68 0.34 1.36 0 0 Z " transform="translate(916,294)" style="fill: #C5F8EF;"/><path d="M0 0 C1.32 0 2.64 0 4 0 C4 0.66 4 1.32 4 2 C6.97 2.495 6.97 2.495 10 3 C10 3.66 10 4.32 10 5 C11.32 5.33 12.64 5.66 14 6 C14.12375 6.804375 14.2475 7.60875 14.375 8.4375 C14.58125 9.283125 14.7875 10.12875 15 11 C15.66 11.33 16.32 11.66 17 12 C12.83865996 12 10.92958154 9.72649844 7.9375 7.125 C7.39544922 6.66480469 6.85339844 6.20460938 6.29492188 5.73046875 C4.12652568 3.88103318 2.01578933 2.01578933 0 0 Z " transform="translate(376,277)" style="fill: #BFF6EC;"/><path d="M0 0 C3.40312738 1.05875074 6.01353231 2.00902154 9 4 C13.05327748 5.07188249 17.13919972 5.28948036 21.3125 5.5625 C22.56675781 5.64628906 23.82101563 5.73007812 25.11328125 5.81640625 C26.54220703 5.90728516 26.54220703 5.90728516 28 6 C28 6.33 28 6.66 28 7 C18.49232119 7.322092 10.09743079 7.23806859 1 4 C0.67 2.68 0.34 1.36 0 0 Z " transform="translate(180,407)" style="fill: #32C39D;"/><path d="M0 0 C5.02104651 -0.83684109 9.78206137 -0.42734689 14.5625 1.25 C17.0416157 3.02987794 18.01526648 4.14427279 19 7 C18.01 6.67 17.02 6.34 16 6 C16 5.34 16 4.68 16 4 C10.03325384 2.67405641 4.07416385 2.9115413 -2 3 C-1.34 2.01 -0.68 1.02 0 0 Z " transform="translate(336,277)" style="fill: #2CC199;"/><path d="M0 0 C0.33 0.66 0.66 1.32 1 2 C-0.63412443 3.70840281 -1.86906094 4.93453047 -4 6 C-9.88670391 5.86009662 -15.41940197 4.81976023 -21 3 C-17.10939581 1.5950596 -13.76907638 2.30486761 -9.75 2.9375 C-7.85507813 3.22947266 -7.85507813 3.22947266 -5.921875 3.52734375 C-4.95765625 3.68332031 -3.9934375 3.83929688 -3 4 C-2.67 3.01 -2.34 2.02 -2 1 C-1.34 0.67 -0.68 0.34 0 0 Z " transform="translate(242,270)" style="fill: #AFF3E6;"/><path d="M0 0 C0.33 0 0.66 0 1 0 C1.02688151 1.64574566 1.04634123 3.29161413 1.0625 4.9375 C1.07410156 5.85402344 1.08570313 6.77054687 1.09765625 7.71484375 C1 10 1 10 0 11 C-0.23427778 13.01594582 -0.41336124 15.038474 -0.5625 17.0625 C-0.64628906 18.16722656 -0.73007812 19.27195312 -0.81640625 20.41015625 C-0.87699219 21.26480469 -0.93757812 22.11945313 -1 23 C-1.66 23 -2.32 23 -3 23 C-3.48350422 15.10276444 -1.67664721 7.66467297 0 0 Z " transform="translate(850,293)" style="fill: #D1FDF6;"/><path d="M0 0 C-3.07250006 0.95514676 -3.99408687 1.00170571 -7.25 0.0625 C-13.15678552 -1.61108923 -18.35448477 -1.82275761 -24 1 C-24 0.34 -24 -0.32 -24 -1 C-24.66 -1.33 -25.32 -1.66 -26 -2 C-17.48849302 -4.61244274 -7.94017009 -3.81128164 0 0 Z " transform="translate(219,283)" style="fill: #C6F9F1;"/><path d="M0 0 C-1.98 2.97 -1.98 2.97 -4 6 C-6.92879371 5.37240135 -9.36095629 4.41377341 -12 3 C-7.77050005 0.58314288 -4.87664009 -0.34833144 0 0 Z " transform="translate(184,272)" style="fill: #14C596;"/><path d="M0 0 C0.33 0.66 0.66 1.32 1 2 C0.0625 4.125 0.0625 4.125 -1 6 C-1.66 6 -2.32 6 -3 6 C-3.99 8.97 -4.98 11.94 -6 15 C-6.99 14.67 -7.98 14.34 -9 14 C-7.64002446 7.95566426 -4.14348206 4.36505864 0 0 Z " transform="translate(526,284)" style="fill: #2CC29B;"/><path d="M0 0 C22.2545018 -0.4969988 22.2545018 -0.4969988 29 4 C21.72064777 4.25101215 21.72064777 4.25101215 18.21875 3.03125 C14.51321553 1.84403993 10.98007796 1.55430595 7.125 1.375 C6.43664062 1.33632813 5.74828125 1.29765625 5.0390625 1.2578125 C3.35976754 1.16451834 1.67992233 1.08121762 0 1 C0 0.67 0 0.34 0 0 Z " transform="translate(859,269)" style="fill: #34C09B;"/><path d="M0 0 C-5.99242765 3.99495177 -13.46783351 3.12773086 -20.4375 3.0625 C-21.35982422 3.05798828 -22.28214844 3.05347656 -23.23242188 3.04882812 C-25.48835048 3.03713938 -27.74413967 3.02075455 -30 3 C-30 2.67 -30 2.34 -30 2 C-28.7934375 1.95101563 -27.586875 1.90203125 -26.34375 1.8515625 C-24.72914694 1.77646468 -23.11456461 1.70091997 -21.5 1.625 C-20.70851562 1.5940625 -19.91703125 1.563125 -19.1015625 1.53125 C-15.13219001 1.33603496 -11.49450842 0.95769713 -7.65625 -0.1015625 C-4.18846063 -0.95369023 -3.20041997 -1.0047625 0 0 Z " transform="translate(230,422)" style="fill: #B4F4E6;"/><path d="M0 0 C0 0.33 0 0.66 0 1 C-1.11375 1.2475 -2.2275 1.495 -3.375 1.75 C-7.04824214 2.56767049 -7.04824214 2.56767049 -8.125 5 C-8.41375 5.66 -8.7025 6.32 -9 7 C-11.625 8.25 -11.625 8.25 -14 9 C-13.40606618 7.70359622 -12.79942011 6.41301161 -12.1875 5.125 C-11.85105469 4.40570313 -11.51460937 3.68640625 -11.16796875 2.9453125 C-8.22554849 -1.95544098 -4.9744729 -0.93857979 0 0 Z " transform="translate(171,416)" style="fill: #C0F7ED;"/><path d="M0 0 C3.69081659 3.69081659 4.12150831 7.92522087 4.1953125 12.9609375 C4.18213884 14.76572911 4.15846488 16.57047059 4.125 18.375 C4.11597656 19.30183594 4.10695313 20.22867187 4.09765625 21.18359375 C4.07422937 23.45600077 4.04142748 25.7278618 4 28 C3.67 28 3.34 28 3 28 C2.95101563 26.75863281 2.90203125 25.51726562 2.8515625 24.23828125 C2.77650201 22.59633306 2.70095561 20.95440703 2.625 19.3125 C2.5940625 18.49587891 2.563125 17.67925781 2.53125 16.83789062 C2.31815032 12.45158882 1.86824998 9.0378306 0 5 C-0.125 2.1875 -0.125 2.1875 0 0 Z " transform="translate(1047,352)" style="fill: #3BC19D;"/><path d="M0 0 C3 1 3 1 4.67578125 2.85546875 C6.68466239 7.62582071 6.31514532 12.19686818 6.1875 17.3125 C6.17396484 18.33923828 6.16042969 19.36597656 6.14648438 20.42382812 C6.11123883 22.94975909 6.061967 25.4746066 6 28 C5.67 28 5.34 28 5 28 C5 21.4 5 14.8 5 8 C4.34 8 3.68 8 3 8 C2.67 6.02 2.34 4.04 2 2 C1.34 2 0.68 2 0 2 C0 1.34 0 0.68 0 0 Z " transform="translate(743,280)" style="fill: #C2FFF9;"/><path d="M0 0 C0.33 0 0.66 0 1 0 C2.8849413 7.00629124 4.39700836 13.76410027 5 21 C0.72868035 14.59302052 -0.42104151 7.57874721 0 0 Z " transform="translate(848,352)" style="fill: #C6F9F1;"/><path d="M0 0 C-2.94111124 3.3104925 -5.45570213 4.85717904 -9.625 6.3125 C-11.06746094 6.83263672 -11.06746094 6.83263672 -12.5390625 7.36328125 C-15 8 -15 8 -17 7 C-15.56705502 6.15885829 -14.12845595 5.32734313 -12.6875 4.5 C-11.88699219 4.0359375 -11.08648438 3.571875 -10.26171875 3.09375 C-8 2 -8 2 -5 2 C-5 1.34 -5 0.68 -5 0 C-2 -1 -2 -1 0 0 Z " transform="translate(714,273)" style="fill: #2DC69D;"/><path d="M0 0 C0.33 0.66 0.66 1.32 1 2 C0.27296875 1.86722656 -0.4540625 1.73445313 -1.203125 1.59765625 C-8.45797728 0.32340655 -15.65194992 -0.50491861 -23 -1 C-23 -1.33 -23 -1.66 -23 -2 C-14.84998154 -3.18054369 -7.70194899 -3.28019216 0 0 Z " transform="translate(883,269)" style="fill: #D8FBF7;"/><path d="M0 0 C0 0.66 0 1.32 0 2 C-13.44874715 6.59225513 -13.44874715 6.59225513 -21 6 C-21 5.67 -21 5.34 -21 5 C-20.04287109 4.80083984 -20.04287109 4.80083984 -19.06640625 4.59765625 C-18.24011719 4.42105469 -17.41382813 4.24445313 -16.5625 4.0625 C-15.73878906 3.88847656 -14.91507812 3.71445312 -14.06640625 3.53515625 C-12.02338796 3.19247006 -12.02338796 3.19247006 -11 2 C-9.53090603 1.60613332 -8.04918987 1.25862501 -6.5625 0.9375 C-5.75941406 0.76089844 -4.95632813 0.58429688 -4.12890625 0.40234375 C-2 0 -2 0 0 0 Z " transform="translate(376,418)" style="fill: #D1F9F3;"/><path d="M0 0 C0.66 0 1.32 0 2 0 C2 0.66 2 1.32 2 2 C2.78375 2.2475 3.5675 2.495 4.375 2.75 C8.98401329 4.33931493 13.48547716 6.16207173 18 8 C18 8.33 18 8.66 18 9 C13.28596212 8.52060632 9.33420699 8.03165952 5 6 C5 5.34 5 4.68 5 4 C4.360625 3.896875 3.72125 3.79375 3.0625 3.6875 C2.381875 3.460625 1.70125 3.23375 1 3 C0.67 2.01 0.34 1.02 0 0 Z " transform="translate(832,414)" style="fill: #CDFAF4;"/><path d="M0 0 C0 3.81912009 -1.1485419 5.45945937 -3.35546875 8.48046875 C-6.26784259 11.17147451 -9.14382052 10.93464103 -13 11 C-10.64105041 8.51929818 -8.09146469 6.45437851 -5.375 4.375 C-2.58809969 2.30239094 -2.58809969 2.30239094 0 0 Z " transform="translate(780,405)" style="fill: #C0F5EA;"/><path d="M0 0 C0.85851562 0.36931641 0.85851562 0.36931641 1.734375 0.74609375 C0.744375 1.24109375 0.744375 1.24109375 -0.265625 1.74609375 C-0.265625 2.40609375 -0.265625 3.06609375 -0.265625 3.74609375 C-1.92095123 4.76475604 -3.58822638 5.76420188 -5.265625 6.74609375 C-5.595625 7.40609375 -5.925625 8.06609375 -6.265625 8.74609375 C-7.585625 8.41609375 -8.905625 8.08609375 -10.265625 7.74609375 C-9.03163437 6.37732259 -7.77781877 5.02640209 -6.515625 3.68359375 C-5.81953125 2.92949219 -5.1234375 2.17539062 -4.40625 1.3984375 C-2.265625 -0.25390625 -2.265625 -0.25390625 0 0 Z " transform="translate(788.265625,386.25390625)" style="fill: #31C49D;"/><path d="M0 0 C1 3 1 3 0.0625 5.1875 C-2.35162213 7.30900126 -3.07685859 7.25551532 -6.1875 7.25 C-7.445625 7.1675 -8.70375 7.085 -10 7 C-7.0094833 3.66442368 -4.06815373 1.84916079 0 0 Z " transform="translate(240,414)" style="fill: #D2F9F2;"/><path d="M0 0 C2.76223278 2.76223278 2.57856291 5.20706617 3 9 C3.99 9 4.98 9 6 9 C6.33 11.97 6.66 14.94 7 18 C4.00315717 15.00315717 3.18681254 13.4432216 1.8125 9.5625 C1.29623047 8.14130859 1.29623047 8.14130859 0.76953125 6.69140625 C0 4 0 4 0 0 Z " transform="translate(318,388)" style="fill: #CDFBF3;"/><path d="M0 0 C0.33 0 0.66 0 1 0 C2.16558465 7.32168224 3.24984418 14.62346781 4 22 C0.70434369 18.70434369 0.04482237 15.86507173 -0.1953125 11.23046875 C-0.18216327 9.88267285 -0.1585249 8.53494305 -0.125 7.1875 C-0.11597656 6.49462891 -0.10695313 5.80175781 -0.09765625 5.08789062 C-0.07426157 3.39177605 -0.03839641 1.69584129 0 0 Z " transform="translate(709,344)" style="fill: #42CBA6;"/><path d="M0 0 C-0.6875 1.9375 -0.6875 1.9375 -2 4 C-4.625 4.75 -4.625 4.75 -7 5 C-7.33 6.32 -7.66 7.64 -8 9 C-8.36627907 3.50581395 -8.36627907 3.50581395 -6.6875 1.1875 C-4.2153796 -0.55214028 -2.80966436 -1.40483218 0 0 Z " transform="translate(431,410)" style="fill: #29C79C;"/><path d="M0 0 C0.33 0 0.66 0 1 0 C1.13277344 1.09699219 1.26554687 2.19398438 1.40234375 3.32421875 C1.58062985 4.77865801 1.7590208 6.23308442 1.9375 7.6875 C2.06801758 8.7693457 2.06801758 8.7693457 2.20117188 9.87304688 C2.66313805 13.62010584 3.19167679 17.30792911 4 21 C3.01 20.67 2.02 20.34 1 20 C0.09761253 17.29283758 -0.11851302 15.76223232 -0.09765625 12.98828125 C-0.09443359 12.23095703 -0.09121094 11.47363281 -0.08789062 10.69335938 C-0.07951172 9.90767578 -0.07113281 9.12199219 -0.0625 8.3125 C-0.05798828 7.51521484 -0.05347656 6.71792969 -0.04882812 5.89648438 C-0.0370585 3.93095743 -0.01912348 1.96546915 0 0 Z " transform="translate(508,384)" style="fill: #CAFAF3;"/><path d="M0 0 C2.475 0.495 2.475 0.495 5 1 C5 1.66 5 2.32 5 3 C6.175625 3.4021875 6.175625 3.4021875 7.375 3.8125 C10 5 10 5 12 8 C10.35 7.67 8.7 7.34 7 7 C7 6.34 7 5.68 7 5 C6.030625 4.731875 5.06125 4.46375 4.0625 4.1875 C2.5465625 3.5996875 2.5465625 3.5996875 1 3 C0.67 2.01 0.34 1.02 0 0 Z " transform="translate(209,372)" style="fill: #C5F8EF;"/><path d="M0 0 C3.75551164 3.75551164 4.75507924 10.08094444 5.19140625 15.28125 C5.18818042 16.85545683 5.1047149 18.42927649 5 20 C4.67 20 4.34 20 4 20 C3.32550034 17.60612843 2.66023359 15.21030779 2 12.8125 C1.71382813 11.80219727 1.71382813 11.80219727 1.421875 10.77148438 C0.4174164 7.09444844 -0.23704741 3.8149818 0 0 Z " transform="translate(359,291)" style="fill: #BAF5EB;"/><path d="M0 0 C0 0.66 0 1.32 0 2 C-2.29032311 2.83719383 -4.58210957 3.6698929 -6.875 4.5 C-7.85146484 4.85771484 -7.85146484 4.85771484 -8.84765625 5.22265625 C-13.7734375 7 -13.7734375 7 -16 7 C-16 6.34 -16 5.68 -16 5 C-15.30132813 4.72285156 -14.60265625 4.44570313 -13.8828125 4.16015625 C-12.97273437 3.79792969 -12.06265625 3.43570312 -11.125 3.0625 C-10.22007812 2.70285156 -9.31515625 2.34320313 -8.3828125 1.97265625 C-3.5502008 0 -3.5502008 0 0 0 Z " transform="translate(1024,417)" style="fill: #2DC299;"/><path d="M0 0 C-2.3129482 2.3129482 -3.47904875 2.49580975 -6.625 3.125 C-7.44226563 3.29257812 -8.25953125 3.46015625 -9.1015625 3.6328125 C-10.04128906 3.81457031 -10.04128906 3.81457031 -11 4 C-11 4.66 -11 5.32 -11 6 C-12.65 6.33 -14.3 6.66 -16 7 C-16 6.34 -16 5.68 -16 5 C-5.62642369 -0.74031891 -5.62642369 -0.74031891 0 0 Z " transform="translate(560,341)" style="fill: #D3FCF7;"/><path d="M0 0 C4.40938215 0.50392939 6.78843816 1.9620361 10 5 C11.3125 7.25 11.3125 7.25 12 9 C7.09198451 7.51272258 3.59508707 4.55364515 0 1 C0 0.67 0 0.34 0 0 Z " transform="translate(687,407)" style="fill: #3AC59F;"/><path d="M0 0 C0.99 0 1.98 0 3 0 C4.60546875 2.01171875 4.60546875 2.01171875 6.1875 4.6875 C6.71730469 5.55761719 7.24710938 6.42773438 7.79296875 7.32421875 C9.06589281 10.14607305 9.24766963 11.94540791 9 15 C6.84493857 12.24000905 5.05043228 9.44833897 3.375 6.375 C2.73691406 5.21097656 2.73691406 5.21097656 2.0859375 4.0234375 C1.37156744 2.69234508 0.67559331 1.35118662 0 0 Z " transform="translate(232,294)" style="fill: #23BF94;"/><path d="M0 0 C5.3487267 -0.48429115 9.6127109 -0.78688728 14.125 2.4375 C15.07375 3.283125 16.0225 4.12875 17 5 C17 5.33 17 5.66 17 6 C15.35 6 13.7 6 12 6 C12 5.34 12 4.68 12 4 C10.68 3.67 9.36 3.34 8 3 C8 2.34 8 1.68 8 1 C5.36 1 2.72 1 0 1 C0 0.67 0 0.34 0 0 Z " transform="translate(864,279)" style="fill: #C7FBF2;"/><path d="M0 0 C1 2 1 2 -0.125 5.375 C-1.71128564 8.90909684 -3.77069265 10.81803558 -7 13 C-7.66 12.67 -8.32 12.34 -9 12 C-8.60167969 11.55269531 -8.20335937 11.10539062 -7.79296875 10.64453125 C-4.82015875 7.25220061 -2.1717806 3.98159776 0 0 Z " transform="translate(250,401)" style="fill: #C4F7ED;"/><path d="M0 0 C3.88975419 3.59054233 6.89732195 7.73898882 10 12 C7.6875 11.875 7.6875 11.875 5 11 C3.3125 8 3.3125 8 2 5 C1.34 4.67 0.68 4.34 0 4 C0 2.68 0 1.36 0 0 Z " transform="translate(284,396)" style="fill: #C7F7EE;"/><path d="M0 0 C3.63 0.33 7.26 0.66 11 1 C11 1.33 11 1.66 11 2 C2.09 3.485 2.09 3.485 -7 5 C-7.33 4.34 -7.66 3.68 -8 3 C-5.69 3 -3.38 3 -1 3 C-0.67 2.01 -0.34 1.02 0 0 Z " transform="translate(717,268)" style="fill: #CAF9EF;"/><path d="M0 0 C0.99 3.63 1.98 7.26 3 11 C1.68 10.67 0.36 10.34 -1 10 C-1.12375 9.05125 -1.2475 8.1025 -1.375 7.125 C-1.71687177 3.91332809 -1.71687177 3.91332809 -4 2 C-2 0 -2 0 0 0 Z " transform="translate(596,403)" style="fill: #CAFAF2;"/><path d="M0 0 C0.66 0 1.32 0 2 0 C3.23921302 2.97411124 4.30058404 5.85262818 5 9 C5.66 9 6.32 9 7 9 C7.33 10.98 7.66 12.96 8 15 C5.31874582 12.61753661 3.88576541 10.1454496 2.3125 6.9375 C1.87550781 6.05964844 1.43851563 5.18179687 0.98828125 4.27734375 C0 2 0 2 0 0 Z " transform="translate(668,378)" style="fill: #31C39C;"/><path d="M0 0 C0.66 0.99 1.32 1.98 2 3 C1.67 3.99 1.34 4.98 1 6 C0.5875 5.484375 0.175 4.96875 -0.25 4.4375 C-0.8275 3.963125 -1.405 3.48875 -2 3 C-4.32488881 3.2818047 -5.90892835 3.95446418 -8 5 C-7.625 3.0625 -7.625 3.0625 -7 1 C-4.46578263 -0.26710868 -2.80561762 -0.28056176 0 0 Z " transform="translate(791,384)" style="fill: #D3F9F3;"/><path d="M0 0 C-1.38009621 3.33523252 -2.84950652 5.18607951 -6 7 C-6.99 6.67 -7.98 6.34 -9 6 C-8.34 5.38125 -7.68 4.7625 -7 4.125 C-4.7715451 2.24362573 -4.7715451 2.24362573 -5 0 C-3 -1 -3 -1 0 0 Z " transform="translate(554,321)" style="fill: #18C293;"/><path d="M0 0 C0.33 0.66 0.66 1.32 1 2 C-0.3125 4.625 -0.3125 4.625 -2 7 C-2.66 7 -3.32 7 -4 7 C-4.4021875 8.2065625 -4.4021875 8.2065625 -4.8125 9.4375 C-5.204375 10.283125 -5.59625 11.12875 -6 12 C-6.99 12.33 -7.98 12.66 -9 13 C-7.47987323 7.59510481 -3.72614782 4.01507372 0 0 Z " transform="translate(685,290)" style="fill: #3CC5A1;"/><path d="M0 0 C1.60407328 -0.02708567 3.2082785 -0.04643483 4.8125 -0.0625 C5.70582031 -0.07410156 6.59914063 -0.08570313 7.51953125 -0.09765625 C10 0 10 0 13 1 C13 1.66 13 2.32 13 3 C6.07 2.505 6.07 2.505 -1 2 C-0.67 1.34 -0.34 0.68 0 0 Z " transform="translate(731,277)" style="fill: #32C19A;"/><path d="M0 0 C0.33 0.66 0.66 1.32 1 2 C-0.0625 3.9375 -0.0625 3.9375 -2 6 C-5.6875 6.75 -5.6875 6.75 -9 7 C-6.24479785 4.04070881 -3.53372712 1.96318174 0 0 Z " transform="translate(649,414)" style="fill: #C4F6EE;"/><path d="M0 0 C6.50313209 -0.46450943 10.4174808 0.67424388 16 4 C12.06322574 5.31225809 10.2205738 4.3393954 6.3125 3.0625 C5.13300781 2.68222656 3.95351562 2.30195313 2.73828125 1.91015625 C1.83464844 1.60980469 0.93101562 1.30945313 0 1 C0 0.67 0 0.34 0 0 Z " transform="translate(176,418)" style="fill: #43CAA7;"/><path d="M0 0 C0.33 1.32 0.66 2.64 1 4 C-0.6875 6.3125 -0.6875 6.3125 -3 8 C-4.32 7.67 -5.64 7.34 -7 7 C-4.69 4.69 -2.38 2.38 0 0 Z " transform="translate(788,397)" style="fill: #C2F7EC;"/><path d="M0 0 C0.99 0.33 1.98 0.66 3 1 C-1.69799829 4.85907002 -5.24318779 5.12779144 -11.25 5.0625 C-12.32765625 5.05347656 -13.4053125 5.04445313 -14.515625 5.03515625 C-15.33546875 5.02355469 -16.1553125 5.01195312 -17 5 C-17 4.67 -17 4.34 -17 4 C-15.94039062 3.87882812 -14.88078125 3.75765625 -13.7890625 3.6328125 C-12.40098676 3.46399248 -11.01296881 3.29469692 -9.625 3.125 C-8.92632813 3.04636719 -8.22765625 2.96773438 -7.5078125 2.88671875 C-3.30927841 2.44779555 -3.30927841 2.44779555 0 0 Z " transform="translate(583,396)" style="fill: #C3FAF2;"/><path d="M0 0 C4.29 0 8.58 0 13 0 C13 0.99 13 1.98 13 3 C11.02013918 2.88652381 9.04108402 2.7589065 7.0625 2.625 C5.96035156 2.55539062 4.85820313 2.48578125 3.72265625 2.4140625 C2.82417969 2.27742188 1.92570313 2.14078125 1 2 C0.67 1.34 0.34 0.68 0 0 Z " transform="translate(763,324)" style="fill: #DAFDF7;"/><path d="M0 0 C1.32 0.33 2.64 0.66 4 1 C4 1.66 4 2.32 4 3 C4.763125 3.12375 5.52625 3.2475 6.3125 3.375 C9 4 9 4 12 6 C12 6.66 12 7.32 12 8 C6.80421104 6.63919813 3.86388964 4.58789752 0 1 C0 0.67 0 0.34 0 0 Z " transform="translate(190,312)" style="fill: #C2F7EC;"/><path d="M0 0 C0.33 0 0.66 0 1 0 C1.66 5.28 2.32 10.56 3 16 C-0.28999271 11.61334305 -0.85945209 9.27595241 -1 4 C-0.5625 1.5 -0.5625 1.5 0 0 Z " transform="translate(183,292)" style="fill: #C3F9F1;"/><path d="M0 0 C3.55003269 0.98612019 4.93395893 1.91967978 7.3125 4.8125 C8.98615784 7.97385369 9.4106003 9.50989741 9 13 C7 11 7 11 5.625 8.125 C4.05256073 5.10107833 2.46820391 3.29798295 0 1 C0 0.67 0 0.34 0 0 Z " transform="translate(780,283)" style="fill: #C3F8EF;"/><path d="M0 0 C0 0.66 0 1.32 0 2 C0.99 2.33 1.98 2.66 3 3 C0.03 5.475 0.03 5.475 -3 8 C-2.67 6.68 -2.34 5.36 -2 4 C-2.99 3.34 -3.98 2.68 -5 2 C-2 0 -2 0 0 0 Z " transform="translate(912,401)" style="fill: #14C294;"/><path d="M0 0 C6.47556391 0.61090226 6.47556391 0.61090226 8.9375 2.4375 C10 4 10 4 10 6 C6.51329166 4.8905928 3.22515763 3.73662334 0 2 C0 1.34 0 0.68 0 0 Z " transform="translate(188,360)" style="fill: #2FC39D;"/><path d="M0 0 C0 0.66 0 1.32 0 2 C-0.99 2 -1.98 2 -3 2 C-3.33 2.99 -3.66 3.98 -4 5 C-4.99 5 -5.98 5 -7 5 C-7.33 5.99 -7.66 6.98 -8 8 C-9.32 7.67 -10.64 7.34 -12 7 C-10.3790787 5.82767315 -8.75313167 4.6622923 -7.125 3.5 C-6.22007812 2.8503125 -5.31515625 2.200625 -4.3828125 1.53125 C-2 0 -2 0 0 0 Z " transform="translate(839,276)" style="fill: #2EC19B;"/><path d="M0 0 C-1.78809697 1.17213045 -3.58059125 2.33755526 -5.375 3.5 C-6.37273437 4.1496875 -7.37046875 4.799375 -8.3984375 5.46875 C-11 7 -11 7 -13 7 C-13 6.34 -13 5.68 -13 5 C-12.01 5 -11.02 5 -10 5 C-10 4.01 -10 3.02 -10 2 C-8.68 2 -7.36 2 -6 2 C-6 1.34 -6 0.68 -6 0 C-3 -1 -3 -1 0 0 Z " transform="translate(312,274)" style="fill: #D3FBF5;"/><path d="M0 0 C2.4375 0.75 2.4375 0.75 5 2 C5.5625 3.875 5.5625 3.875 6 6 C7.97901574 8.22977996 7.97901574 8.22977996 10 10 C9.67 10.66 9.34 11.32 9 12 C7.68181446 10.56771184 6.37063296 9.12897516 5.0625 7.6875 C4.33160156 6.88699219 3.60070312 6.08648437 2.84765625 5.26171875 C1 3 1 3 0 0 Z " transform="translate(156,336)" style="fill: #2EC29C;"/><path d="M0 0 C0 0.66 0 1.32 0 2 C-2.63671875 3.41601562 -2.63671875 3.41601562 -5.2734375 4.83203125 C-7.30502365 6.04763493 -7.30502365 6.04763493 -9 9 C-9.99 8.67 -10.98 8.34 -12 8 C-6.25 3 -6.25 3 -4 3 C-4 2.34 -4 1.68 -4 1 C-2 0 -2 0 0 0 Z " transform="translate(972,325)" style="fill: #47C7A6;"/><path d="M0 0 C2 1 2 1 3.1171875 3.13671875 C4.15384946 6.49898963 4.19595073 9.30043893 4.125 12.8125 C4.10695313 13.97394531 4.08890625 15.13539063 4.0703125 16.33203125 C4.04710937 17.21246094 4.02390625 18.09289062 4 19 C3.67 19 3.34 19 3 19 C2.92652344 17.91332031 2.92652344 17.91332031 2.8515625 16.8046875 C2.44594553 11.5596405 1.90363104 6.9494407 0 2 C0 1.34 0 0.68 0 0 Z " transform="translate(785,290)" style="fill: #53CAA9;"/><path d="M0 0 C0.33 0.66 0.66 1.32 1 2 C-0.65 3.98 -2.3 5.96 -4 8 C-5.32 7.67 -6.64 7.34 -8 7 C-5.36 4.69 -2.72 2.38 0 0 Z " transform="translate(826,284)" style="fill: #3AC7A2;"/><path d="M0 0 C0.66 0.33 1.32 0.66 2 1 C1.2884375 2.0828125 1.2884375 2.0828125 0.5625 3.1875 C-0.94152903 5.89475226 -1.56599182 7.96194275 -2 11 C-2.66 10.67 -3.32 10.34 -4 10 C-3.38461538 3.47692308 -3.38461538 3.47692308 -1.4375 1.0625 C-0.7259375 0.5365625 -0.7259375 0.5365625 0 0 Z " transform="translate(552,283)" style="fill: #BCF6EC;"/><path d="M0 0 C0 2 0 2 -2.375 4.625 C-5 7 -5 7 -7 7 C-7 7.99 -7 8.98 -7 10 C-7.66 10 -8.32 10 -9 10 C-8.1875 7.0625 -8.1875 7.0625 -7 4 C-6.01 3.67 -5.02 3.34 -4 3 C-4 2.34 -4 1.68 -4 1 C-2 0 -2 0 0 0 Z " transform="translate(193,282)" style="fill: #BBF7EB;"/><path d="M0 0 C0.99 0 1.98 0 3 0 C3 0.66 3 1.32 3 2 C6.3 2.66 9.6 3.32 13 4 C13 4.33 13 4.66 13 5 C8.17639811 5.19294408 4.50353262 4.75747614 0 3 C0 2.01 0 1.02 0 0 Z " transform="translate(307,417)" style="fill: #BFF6EC;"/><path d="M0 0 C2.86697492 1.28519565 4.97607712 2.57129254 7 5 C7 5.66 7 6.32 7 7 C7.99 7.33 8.98 7.66 10 8 C9.67 8.66 9.34 9.32 9 10 C6.95880212 8.38405168 4.95927063 6.7143618 3 5 C3 4.34 3 3.68 3 3 C2.34 3 1.68 3 1 3 C0.67 2.01 0.34 1.02 0 0 Z " transform="translate(957,405)" style="fill: #38C5A1;"/><path d="M0 0 C1.97566188 1.97566188 2.89579072 3.52337094 4.125 6 C4.47820312 6.70125 4.83140625 7.4025 5.1953125 8.125 C6 10 6 10 6 12 C4 12 4 12 2.4375 10.5 C0.42584433 7.0014684 0.33420906 4.01050867 0 0 Z " transform="translate(162,384)" style="fill: #47CBA8;"/><path d="M0 0 C0.66 0 1.32 0 2 0 C0.14285714 8.57142857 0.14285714 8.57142857 -3 12 C-2.88541307 10.56163249 -2.75790884 9.12429034 -2.625 7.6875 C-2.55539063 6.88699219 -2.48578125 6.08648437 -2.4140625 5.26171875 C-2 3 -2 3 0 0 Z " transform="translate(255,386)" style="fill: #2BC19A;"/><path d="M0 0 C4.29 1.65 8.58 3.3 13 5 C13 5.33 13 5.66 13 6 C3.11655941 5.38756458 3.11655941 5.38756458 0 2 C0 1.34 0 0.68 0 0 Z " transform="translate(523,418)" style="fill: #C9FAF1;"/><path d="M0 0 C1.485 0.99 1.485 0.99 3 2 C3 2.66 3 3.32 3 4 C3.66 4 4.32 4 5 4 C6.37562854 5.28965176 7.70766393 6.62689293 9 8 C9.66 8.66 10.32 9.32 11 10 C7.47975677 9.3481031 4.85251303 8.17691784 2 6 C0.6875 2.8125 0.6875 2.8125 0 0 Z " transform="translate(859,388)" style="fill: #2CC099;"/><path d="M0 0 C1.32 0.33 2.64 0.66 4 1 C2.625 3.5 2.625 3.5 1 6 C0.34 6 -0.32 6 -1 6 C-1.33 6.99 -1.66 7.98 -2 9 C-2.33 7.68 -2.66 6.36 -3 5 C-2.34 4.67 -1.68 4.34 -1 4 C-0.34786708 1.97536745 -0.34786708 1.97536745 0 0 Z " transform="translate(396,392)" style="fill: #24C097;"/><path d="M0 0 C2.34914492 2.34914492 2.73140357 3.95679446 3.625 7.125 C3.88539063 8.03507812 4.14578125 8.94515625 4.4140625 9.8828125 C4.60742188 10.58148438 4.80078125 11.28015625 5 12 C2 11 2 11 0.8125 9.375 C-0.27499354 6.19617272 -0.1282071 3.33338467 0 0 Z " transform="translate(713,366)" style="fill: #3DC6A3;"/><path d="M0 0 C3.27742098 3.10026309 5.93104837 5.97098894 8 10 C8 10.66 8 11.32 8 12 C7.34 12 6.68 12 6 12 C4.4921875 9.8828125 4.4921875 9.8828125 2.875 7.125 C2.33617187 6.22007812 1.79734375 5.31515625 1.2421875 4.3828125 C0 2 0 2 0 0 Z " transform="translate(246,346)" style="fill: #31C199;"/><path d="M0 0 C1.32176485 0.90325616 2.63215066 1.82317903 3.9375 2.75 C4.66839844 3.26046875 5.39929687 3.7709375 6.15234375 4.296875 C8.20805399 6.19177915 8.62669176 7.27425729 9 10 C5.75161077 8.91720359 4.95717417 8.10963155 2.8125 5.5625 C2.01779297 4.63630859 2.01779297 4.63630859 1.20703125 3.69140625 C0 2 0 2 0 0 Z " transform="translate(1031,330)" style="fill: #27BD96;"/><path d="M0 0 C3 1 3 1 4.75 3.5625 C6.3524663 7.96928233 5.86505517 10.43879999 5 15 C4.67 15 4.34 15 4 15 C3.96261719 14.39671875 3.92523437 13.7934375 3.88671875 13.171875 C3.50675198 8.5526711 3.24820627 5.53065899 0 2 C0 1.34 0 0.68 0 0 Z " transform="translate(746,281)" style="fill: #14BE91;"/><path d="M0 0 C0 3 0 3 -2.5 5.6875 C-3.325 6.450625 -4.15 7.21375 -5 8 C-5.66 7.67 -6.32 7.34 -7 7 C-7 6.01 -7 5.02 -7 4 C-4.69 2.68 -2.38 1.36 0 0 Z " transform="translate(303,279)" style="fill: #2EC49C;"/><path d="M0 0 C-3.41139003 1.09651823 -6.20655581 0.94215473 -9.75 0.5625 C-11.22726563 0.40974609 -11.22726563 0.40974609 -12.734375 0.25390625 C-13.48203125 0.17011719 -14.2296875 0.08632813 -15 0 C-15 -0.33 -15 -0.66 -15 -1 C-9.24494947 -3.80374257 -5.57861091 -2.30582584 0 0 Z " transform="translate(215,280)" style="fill: #27C299;"/><path d="M0 0 C-2.49505962 2.49505962 -3.67328888 2.35948376 -7.125 2.625 C-8.03507813 2.69976562 -8.94515625 2.77453125 -9.8828125 2.8515625 C-10.93082031 2.92503906 -10.93082031 2.92503906 -12 3 C-4.82142857 -1.78571429 -4.82142857 -1.78571429 0 0 Z " transform="translate(1022,421)" style="fill: #C4F9EF;"/><path d="M0 0 C0 0.66 0 1.32 0 2 C-1.24420647 2.5345256 -2.49570936 3.05208611 -3.75 3.5625 C-4.44609375 3.85253906 -5.1421875 4.14257812 -5.859375 4.44140625 C-8.30012784 5.07831803 -9.6403655 4.80248831 -12 4 C-10.56570999 3.32645501 -9.12742943 2.66140299 -7.6875 2 C-6.88699219 1.62875 -6.08648437 1.2575 -5.26171875 0.875 C-3 0 -3 0 0 0 Z " transform="translate(232,418)" style="fill: #37C19C;"/><path d="M0 0 C-1.4096347 0.70180531 -2.82807641 1.38593958 -4.25 2.0625 C-5.03890625 2.44535156 -5.8278125 2.82820313 -6.640625 3.22265625 C-9.25993522 4.08564091 -10.44855176 3.93045933 -13 3 C-11.40084119 2.30093058 -9.79544955 1.61610532 -8.1875 0.9375 C-7.29417969 0.55464844 -6.40085937 0.17179687 -5.48046875 -0.22265625 C-3 -1 -3 -1 0 0 Z " transform="translate(643,419)" style="fill: #28BF97;"/><path d="M0 0 C0 1.32 0 2.64 0 4 C-5.75 3.25 -5.75 3.25 -8 1 C-2.25 -1.125 -2.25 -1.125 0 0 Z " transform="translate(848,417)" style="fill: #27C79C;"/><path d="M0 0 C0.33 0.66 0.66 1.32 1 2 C-0.0625 3.9375 -0.0625 3.9375 -2 6 C-5.6875 6.75 -5.6875 6.75 -9 7 C-6.03716687 4.61327331 -3.05729491 2.2646629 0 0 Z " transform="translate(1033,411)" style="fill: #C0F8EC;"/><path d="M0 0 C3.08494591 1.0283153 4.08268479 1.47262996 6 4 C6.6875 7.1875 6.6875 7.1875 7 10 C3.60582235 6.87378374 1.3937282 4.43458973 0 0 Z " transform="translate(721,382)" style="fill: #D1FCF5;"/><path d="M0 0 C2.34914492 2.34914492 2.73140357 3.95679446 3.625 7.125 C3.88539063 8.03507812 4.14578125 8.94515625 4.4140625 9.8828125 C4.60742188 10.58148438 4.80078125 11.28015625 5 12 C3.046875 11.3203125 3.046875 11.3203125 1 10 C0.390625 7.6171875 0.390625 7.6171875 0.25 4.875 C0.19328125 3.96492188 0.1365625 3.05484375 0.078125 2.1171875 C0.05234375 1.41851562 0.0265625 0.71984375 0 0 Z " transform="translate(272,374)" style="fill: #C0F7ED;"/><path d="M0 0 C-3.28491373 2.18994248 -4.83095639 2.35277339 -8.6875 2.625 C-10.17830078 2.73714844 -10.17830078 2.73714844 -11.69921875 2.8515625 C-12.83810547 2.92503906 -12.83810547 2.92503906 -14 3 C-4.63580818 -1.78300315 -4.63580818 -1.78300315 0 0 Z " transform="translate(592,333)" style="fill: #2EC19A;"/><path d="M0 0 C1.65 0 3.3 0 5 0 C5.33 1.65 5.66 3.3 6 5 C6.66 5 7.32 5 8 5 C7.67 5.99 7.34 6.98 7 8 C7 7.34 7 6.68 7 6 C6.401875 5.7525 5.80375 5.505 5.1875 5.25 C2.71352479 3.83629988 1.56629745 2.34944617 0 0 Z " transform="translate(1032,330)" style="fill: #C4F6EE;"/><path d="M0 0 C2.64 0.33 5.28 0.66 8 1 C8.33 2.32 8.66 3.64 9 5 C2.25 3.375 2.25 3.375 0 0 Z " transform="translate(604,419)" style="fill: #4AD0AC;"/><path d="M0 0 C2.64 0.33 5.28 0.66 8 1 C8 2.32 8 3.64 8 5 C4.62496331 3.8141763 2.35277269 2.72426311 0 0 Z " transform="translate(1022,323)" style="fill: #D3FAF4;"/><path d="M0 0 C0 3 0 3 -2.5 5.6875 C-3.325 6.450625 -4.15 7.21375 -5 8 C-5.33 7.01 -5.66 6.02 -6 5 C-4.02 3.35 -2.04 1.7 0 0 Z " transform="translate(692,284)" style="fill: #27C49B;"/><path d="M0 0 C0.99 0.33 1.98 0.66 3 1 C2.19152271 2.16945792 1.37810888 3.33550461 0.5625 4.5 C0.11003906 5.1496875 -0.34242188 5.799375 -0.80859375 6.46875 C-1.20175781 6.9740625 -1.59492188 7.479375 -2 8 C-2.33 8 -2.66 8 -3 8 C-3.1875 5.125 -3.1875 5.125 -3 2 C-2.01 1.34 -1.02 0.68 0 0 Z " transform="translate(159,283)" style="fill: #CAFAF1;"/><path d="M0 0 C6.4 -0.49230769 6.4 -0.49230769 9.4375 2 C10.2109375 2.99 10.2109375 2.99 11 4 C8.04725901 4 6.50941597 3.56108169 3.8125 2.5 C3.09707031 2.2215625 2.38164063 1.943125 1.64453125 1.65625 C1.10183594 1.4396875 0.55914063 1.223125 0 1 C0 0.67 0 0.34 0 0 Z " transform="translate(885,271)" style="fill: #C0F6EC;"/><path d="M0 0 C3.3 0.99 6.6 1.98 10 3 C10 3.33 10 3.66 10 4 C7.03 3.67 4.06 3.34 1 3 C0.67 2.01 0.34 1.02 0 0 Z " transform="translate(704,419)" style="fill: #BEF6EB;"/><path d="M0 0 C4.77576339 0.4682121 8.04476345 1.24331998 12 4 C10 5 10 5 7.6171875 4.22265625 C6.71226562 3.83980469 5.80734375 3.45695312 4.875 3.0625 C3.50988281 2.49208984 3.50988281 2.49208984 2.1171875 1.91015625 C1.41851563 1.60980469 0.71984375 1.30945313 0 1 C0 0.67 0 0.34 0 0 Z " transform="translate(526,419)" style="fill: #37C59F;"/><path d="M0 0 C0.99 0.33 1.98 0.66 3 1 C2.67 1.99 2.34 2.98 2 4 C1.34 4 0.68 4 0 4 C-0.33 4.66 -0.66 5.32 -1 6 C-1.99 6 -2.98 6 -4 6 C-2.84826645 3.53199953 -1.95216435 1.95216435 0 0 Z " transform="translate(1044,399)" style="fill: #DBF9F2;"/><path d="M0 0 C2.39763185 2.39763185 2.34280586 3.33273498 2.625 6.625 C2.69976562 7.44226563 2.77453125 8.25953125 2.8515625 9.1015625 C2.90054688 9.72804688 2.94953125 10.35453125 3 11 C2.67 10.01 2.34 9.02 2 8 C1.34 8 0.68 8 0 8 C0 5.36 0 2.72 0 0 Z " transform="translate(159,376)" style="fill: #2EC498;"/><path d="M0 0 C1.66905241 3.33810482 2.8741386 6.46157845 4 10 C2.35 9.67 0.7 9.34 -1 9 C-0.67 6.03 -0.34 3.06 0 0 Z " transform="translate(749,308)" style="fill: #BFF4EA;"/><path d="M0 0 C2 3 2 3 1.6875 5.375 C1.460625 6.24125 1.23375 7.1075 1 8 C0.814375 8.928125 0.62875 9.85625 0.4375 10.8125 C0.293125 11.534375 0.14875 12.25625 0 13 C-0.33 13 -0.66 13 -1 13 C-1.07654536 8.48382401 -1.10228696 4.40914783 0 0 Z " transform="translate(804,311)" style="fill: #AEEEE1;"/><path d="M0 0 C1.98 1.65 3.96 3.3 6 5 C5.67 5.99 5.34 6.98 5 8 C4.34 7.67 3.68 7.34 3 7 C3 6.01 3 5.02 3 4 C2.01 4.33 1.02 4.66 0 5 C0 3.35 0 1.7 0 0 Z " transform="translate(776,280)" style="fill: #1BBF93;"/><path d="M0 0 C0 0.66 0 1.32 0 2 C-2.8125 4.1875 -2.8125 4.1875 -6 6 C-6.99 5.67 -7.98 5.34 -9 5 C-8.01 4.67 -7.02 4.34 -6 4 C-6 3.34 -6 2.68 -6 2 C-2.25 0 -2.25 0 0 0 Z " transform="translate(172,276)" style="fill: #44CAA8;"/><path d="M0 0 C0.66 1.32 1.32 2.64 2 4 C-4.75 3.25 -4.75 3.25 -7 1 C-3.535 0.505 -3.535 0.505 0 0 Z " transform="translate(983,419)" style="fill: #42C7A5;"/><path d="M0 0 C-2.68841859 2.25245881 -4.64641875 3.88213958 -8 5 C-8 3.68 -8 2.36 -8 1 C-5.07175348 0.02391783 -3.04386724 -0.08226668 0 0 Z " transform="translate(772,412)" style="fill: #1FC196;"/><path d="M0 0 C0.99 0.33 1.98 0.66 3 1 C2.02433888 2.16959987 1.044375 3.33561177 0.0625 4.5 C-0.48277344 5.1496875 -1.02804687 5.799375 -1.58984375 6.46875 C-2.05519531 6.9740625 -2.52054688 7.479375 -3 8 C-3.33 8 -3.66 8 -4 8 C-4.25 5.6875 -4.25 5.6875 -4 3 C-2.1875 1.125 -2.1875 1.125 0 0 Z " transform="translate(565,354)" style="fill: #22C096;"/><path d="M0 0 C4.875 4.625 4.875 4.625 6 8 C5.34 8 4.68 8 4 8 C4 7.34 4 6.68 4 6 C2.68 5.67 1.36 5.34 0 5 C0 3.35 0 1.7 0 0 Z " transform="translate(155,336)" style="fill: #C7F9F2;"/><path d="M0 0 C0.66 0.33 1.32 0.66 2 1 C0.68 1.33 -0.64 1.66 -2 2 C-2 2.66 -2 3.32 -2 4 C-3.65 4.66 -5.3 5.32 -7 6 C-7.66 5.34 -8.32 4.68 -9 4 C-7.54618103 3.30300448 -6.08677047 2.61766134 -4.625 1.9375 C-3.40683594 1.36322266 -3.40683594 1.36322266 -2.1640625 0.77734375 C-1.44992187 0.52082031 -0.73578125 0.26429688 0 0 Z " transform="translate(981,320)" style="fill: #48CCA8;"/><path d="M0 0 C0.86625 0.556875 0.86625 0.556875 1.75 1.125 C-1.47791555 3.2769437 -2.53400809 3.32586443 -6.25 3.125 C-6.25 2.465 -6.25 1.805 -6.25 1.125 C-2.80384615 -1.09038462 -2.80384615 -1.09038462 0 0 Z " transform="translate(782.25,320.875)" style="fill: #CAF6EE;"/><path d="M0 0 C1.32 0 2.64 0 4 0 C4.12375 0.804375 4.2475 1.60875 4.375 2.4375 C4.684375 3.7059375 4.684375 3.7059375 5 5 C5.66 5.33 6.32 5.66 7 6 C6.01 6 5.02 6 4 6 C0 1.54285714 0 1.54285714 0 0 Z " transform="translate(386,283)" style="fill: #CFF8F2;"/><path d="M0 0 C0.66 0.33 1.32 0.66 2 1 C-0.25 3.5625 -0.25 3.5625 -3 6 C-4.32 5.67 -5.64 5.34 -7 5 C-4.69 3.35 -2.38 1.7 0 0 Z " transform="translate(534,278)" style="fill: #37C19C;"/><path d="M0 0 C0 0.99 0 1.98 0 3 C-3.83887763 4.48320272 -6.06204091 5.22419163 -10 4 C-8.71086513 3.32845067 -7.41859796 2.66291141 -6.125 2 C-5.40570312 1.62875 -4.68640625 1.2575 -3.9453125 0.875 C-2 0 -2 0 0 0 Z " transform="translate(581,414)" style="fill: #B7F4E7;"/><path d="M0 0 C0.625 1.875 0.625 1.875 1 4 C0.34 4.66 -0.32 5.32 -1 6 C-3.125 5.625 -3.125 5.625 -5 5 C-3.35 3.35 -1.7 1.7 0 0 Z " transform="translate(1039,405)" style="fill: #CAF7F1;"/><path d="M0 0 C3.7952131 1.49097658 5.61042731 3.75700849 8 7 C5.125 6.3125 5.125 6.3125 2 5 C0.625 2.375 0.625 2.375 0 0 Z " transform="translate(818,403)" style="fill: #C5F9F1;"/><path d="M0 0 C1.32 0 2.64 0 4 0 C3.1875 2.4375 3.1875 2.4375 2 5 C1.01 5.33 0.02 5.66 -1 6 C-0.67 4.02 -0.34 2.04 0 0 Z " transform="translate(220,402)" style="fill: #CFFBF4;"/><path d="M0 0 C0.99 0.495 0.99 0.495 2 1 C2 1.66 2 2.32 2 3 C2.639375 3.28875 3.27875 3.5775 3.9375 3.875 C6 5 6 5 7 7 C5.35 6.67 3.7 6.34 2 6 C1.34 4.02 0.68 2.04 0 0 Z " transform="translate(169,397)" style="fill: #40C9A4;"/><path d="M0 0 C2.12038635 2.61514317 4.13091744 5.19637616 6 8 C4.35 7.67 2.7 7.34 1 7 C1.33 6.01 1.66 5.02 2 4 C1.34 4 0.68 4 0 4 C0 2.68 0 1.36 0 0 Z " transform="translate(720,382)" style="fill: #36C79F;"/><path d="M0 0 C0.33 1.32 0.66 2.64 1 4 C-1.475 5.485 -1.475 5.485 -4 7 C-3.43628586 3.73045798 -2.50037734 2.17424117 0 0 Z " transform="translate(521,362)" style="fill: #29C499;"/><path d="M0 0 C1.65 0 3.3 0 5 0 C5 0.66 5 1.32 5 2 C5.99 2.33 6.98 2.66 8 3 C4.37673261 4.2077558 3.35853631 3.54311128 0 2 C0 1.34 0 0.68 0 0 Z " transform="translate(699,415)" style="fill: #1EC394;"/><path d="M0 0 C1.98 1.65 3.96 3.3 6 5 C4.125 5.625 4.125 5.625 2 6 C0 4 0 4 0 0 Z " transform="translate(680,400)" style="fill: #BBF3E7;"/><path d="M0 0 C0.99 0 1.98 0 3 0 C3.66 1.32 4.32 2.64 5 4 C2.36 4 -0.28 4 -3 4 C-1.6875 2 -1.6875 2 0 0 Z " transform="translate(651,400)" style="fill: #45CAA7;"/><path d="M0 0 C-3.3146667 2.02907167 -5.4315979 2.12742133 -9.25 1.625 C-10.14203125 1.51414062 -11.0340625 1.40328125 -11.953125 1.2890625 C-12.62859375 1.19367188 -13.3040625 1.09828125 -14 1 C-14 0.67 -14 0.34 -14 0 C-12.41773035 -0.19627391 -10.83410729 -0.38165538 -9.25 -0.5625 C-8.36828125 -0.66691406 -7.4865625 -0.77132813 -6.578125 -0.87890625 C-4.11567549 -0.99456676 -2.33461936 -0.73638695 0 0 Z " transform="translate(582,401)" style="fill: #51CFB0;"/><path d="M0 0 C5.75 1.75 5.75 1.75 8 4 C6.25 4.6875 6.25 4.6875 4 5 C1.75 3.6875 1.75 3.6875 0 2 C0 1.34 0 0.68 0 0 Z " transform="translate(188,362)" style="fill: #D5FCF7;"/><path d="M0 0 C0.75 1.75 0.75 1.75 1 4 C-0.9375 6.25 -0.9375 6.25 -3 8 C-3.33 7.34 -3.66 6.68 -4 6 C-2.68 4.02 -1.36 2.04 0 0 Z " transform="translate(954,340)" style="fill: #3EC8A3;"/><path d="M0 0 C4 1 4 1 6 4 C5.67 5.32 5.34 6.64 5 8 C3.35 5.36 1.7 2.72 0 0 Z " transform="translate(1040,339)" style="fill: #C0F9EE;"/><path d="M0 0 C2.88437779 1.29299694 4.87219421 2.65941363 7 5 C6.01 5.33 5.02 5.66 4 6 C4 5.34 4 4.68 4 4 C2.68 3.67 1.36 3.34 0 3 C0 2.01 0 1.02 0 0 Z " transform="translate(188,312)" style="fill: #25C498;"/><path d="M0 0 C2.475 0.495 2.475 0.495 5 1 C5 2.32 5 3.64 5 5 C5.66 5.33 6.32 5.66 7 6 C6.01 6 5.02 6 4 6 C1.8125 3 1.8125 3 0 0 Z " transform="translate(392,290)" style="fill: #C9F9F0;"/><path d="M0 0 C1 2 1 2 0.375 4.0625 C-1 6 -1 6 -3.625 6.75 C-4.800625 6.87375 -4.800625 6.87375 -6 7 C-4.02 4.69 -2.04 2.38 0 0 Z " transform="translate(294,285)" style="fill: #43CCAB;"/><path d="M0 0 C3.75376152 1.25125384 4.24073289 2.5652404 6 6 C6 6.66 6 7.32 6 8 C5.01 8 4.02 8 3 8 C2.67 6.02 2.34 4.04 2 2 C1.34 2 0.68 2 0 2 C0 1.34 0 0.68 0 0 Z " transform="translate(743,280)" style="fill: #AAF4E4;"/><path d="M0 0 C2.97 0.33 5.94 0.66 9 1 C9.33 2.32 9.66 3.64 10 5 C5.05 3.02 5.05 3.02 0 1 C0 0.67 0 0.34 0 0 Z " transform="translate(578,280)" style="fill: #4BCFAC;"/><path d="M0 0 C-5.75 4 -5.75 4 -8 4 C-8 3.01 -8 2.02 -8 1 C-3.375 -1.125 -3.375 -1.125 0 0 Z " transform="translate(840,275)" style="fill: #D2FBF6;"/><path d="M0 0 C2.64 0 5.28 0 8 0 C8 0.99 8 1.98 8 3 C2.25 2.25 2.25 2.25 0 0 Z " transform="translate(608,273)" style="fill: #C9F8F0;"/></svg>