<svg xmlns="http://www.w3.org/2000/svg" id="svg" viewBox="0 0 1200 630" style="display: block;"><path d="M0 0 C396 0 792 0 1200 0 C1200 207.9 1200 415.8 1200 630 C804 630 408 630 0 630 C0 422.1 0 214.2 0 0 Z " transform="translate(0,0)" style="fill: #FEFEFE;"/><path d="M0 0 C7.00407643 5.62314653 12.17162388 12.04263441 14 21 C14.91034983 30.20796472 13.39892329 38.05675265 8.1171875 45.73828125 C2.36286324 52.69915737 -3.9023866 57.10234073 -12.9453125 58.43359375 C-19.67282615 58.72342136 -24.9765087 57.13991968 -31.23828125 54.83984375 C-35.38838224 53.57779041 -37.82671418 53.82855135 -42 55 C-45.40569591 57.14706916 -47.80960782 59.10417103 -49 63 C-49.82741369 70.47981979 -47.45163281 74.56216407 -43.4375 80.75 C-42.33558454 82.51540474 -41.23402086 84.28102911 -40.1328125 86.046875 C-39.5955957 86.89443359 -39.05837891 87.74199219 -38.50488281 88.61523438 C-36.55049196 91.71232877 -34.67033618 94.84401051 -32.8125 98 C-32.28269531 98.886875 -31.75289062 99.77375 -31.20703125 100.6875 C-27.83947902 107.13925054 -28.11519238 114.9757244 -29.6484375 121.94921875 C-32.62168051 131.05954028 -37.81408766 137.13035077 -46.0078125 141.9921875 C-53.36595559 145.71454224 -60.80305428 146.31343574 -68.859375 144.27734375 C-77.65861687 140.98429414 -82.5010349 135.88124113 -87.3125 128.0625 C-87.78324951 127.3204834 -88.25399902 126.5784668 -88.73901367 125.81396484 C-91.0328273 122.1928864 -93.27938808 118.54522906 -95.5 114.87890625 C-96.08720825 113.92649048 -96.08720825 113.92649048 -96.6862793 112.95483398 C-97.74768008 111.23031656 -98.79048544 109.49439371 -99.83203125 107.7578125 C-103.091519 103.61150917 -106.33081263 102.20864842 -111.5 101.5625 C-115.70552222 102.08819028 -117.76772984 103.29391336 -121 106 C-122.93234652 109.07328831 -123.23886153 111.53303893 -123.375 115.125 C-124.21417475 125.47023632 -128.24848243 133.08095174 -136 140 C-145.10297661 146.356912 -153.15328062 146.55129017 -164 145 C-174.76592455 141.96390458 -181.20733055 131.75386589 -186.5 122.625 C-187.72043174 120.57106621 -188.94182288 118.51770224 -190.1640625 116.46484375 C-191.10620605 114.8713208 -191.10620605 114.8713208 -192.06738281 113.24560547 C-195.27665479 107.85600697 -198.57808457 102.5237695 -201.875 97.1875 C-203.21764245 95.00793232 -204.56008886 92.82824387 -205.90234375 90.6484375 C-207.97491674 87.28516931 -210.04791517 83.92216413 -212.12158203 80.55957031 C-216.17905434 73.97974905 -220.23140593 67.39682922 -224.27441406 60.80810547 C-225.81085632 58.30780003 -227.35397987 55.81176309 -228.8984375 53.31640625 C-229.70363867 52.00291892 -230.50837637 50.68914728 -231.3125 49.375 C-231.96863281 48.31023437 -232.62476563 47.24546875 -233.30078125 46.1484375 C-237.89950579 37.62758237 -240.02482637 28.97786317 -237.23828125 19.375 C-236.28613241 17.14704698 -235.22193531 15.09048863 -234 13 C-233.443125 11.96875 -232.88625 10.9375 -232.3125 9.875 C-227.53452423 3.93481391 -221.67692248 -0.86733931 -214 -2 C-203.32917916 -2.81289204 -195.60118703 -1.97511868 -187.234375 4.89453125 C-182.03153382 9.53021805 -178.68889951 15.19714295 -175.125 21.125 C-174.46242187 22.19621094 -173.79984375 23.26742188 -173.1171875 24.37109375 C-168.30569783 32.22399254 -168.30569783 32.22399254 -166.91186523 35.76220703 C-166.18706087 38.10385088 -166.18706087 38.10385088 -164.21484375 39.296875 C-161.5665813 40.13759324 -159.3404236 40.2654115 -156.5625 40.25 C-155.63566406 40.25515625 -154.70882812 40.2603125 -153.75390625 40.265625 C-150.67981448 39.96911686 -148.66259089 39.58933384 -146 38 C-144.05881664 33.84718977 -143.64976715 29.71365422 -143.1875 25.1875 C-141.84150431 15.35137762 -137.8201724 8.17946956 -130 2 C-122.43568065 -3.35467051 -115.09417929 -4.10802644 -106 -3 C-96.12534538 -0.68775305 -89.46160054 5.39530079 -84.04296875 13.7578125 C-82.74428092 15.87195549 -81.45929988 17.99457381 -80.1875 20.125 C-79.20620117 21.73181641 -79.20620117 21.73181641 -78.20507812 23.37109375 C-75.90986137 27.13628079 -73.62833595 30.90679125 -71.4309082 34.72998047 C-69.59252677 37.64642315 -68.17939801 38.65758751 -65 40 C-61.13535923 40.57224904 -57.94790604 40.32314979 -54.25 39.0625 C-49.02418391 34.27216859 -47.85667066 27.67586341 -46.5625 20.9375 C-44.57992548 11.13008349 -40.30364987 4.69651479 -32 -1 C-22.30640017 -6.18708757 -9.30312156 -5.76422648 0 0 Z " transform="translate(370,246)" style="fill: #67EADD;"/><path d="M0 0 C2.03125 1.71875 2.03125 1.71875 4.03125 4.71875 C4.36125 1.08875 4.69125 -2.54125 5.03125 -6.28125 C11.30125 -6.28125 17.57125 -6.28125 24.03125 -6.28125 C24.03125 22.75875 24.03125 51.79875 24.03125 81.71875 C17.76125 81.71875 11.49125 81.71875 5.03125 81.71875 C4.70125 78.08875 4.37125 74.45875 4.03125 70.71875 C3.4125 71.605625 2.79375 72.4925 2.15625 73.40625 C-2.83918744 79.3922841 -11.3502109 82.7914936 -18.96875 83.71875 C-31.43109766 84.786127 -41.72864483 82.87076017 -51.90625 75.34375 C-61.59331967 67.09114586 -67.88753136 56.57867522 -69.17333984 43.66381836 C-69.88549781 28.42472241 -67.37779697 16.21177569 -56.96875 4.4609375 C-41.01114057 -10.9686628 -17.80311425 -12.84528497 0 0 Z " transform="translate(878.96875,293.28125)" style="fill: #131212;"/><path d="M0 0 C8.65964871 7.51737775 15.01064767 16.40971808 16.22143555 28.14648438 C16.98305602 43.25547554 14.72815632 55.88639538 5 68 C-5.8226122 78.8226122 -17.7841002 82.29906207 -32.79736328 82.31469727 C-44.74942652 82.08300437 -54.36047052 77.23752672 -63 69.12109375 C-73.48723229 57.93320585 -75.68513607 45.04654184 -75.375 30.2578125 C-74.79011829 18.56435599 -69.460227 8.85494447 -60.83203125 1.03515625 C-42.97460464 -13.50281756 -18.48940623 -14.25225064 0 0 Z " transform="translate(1049,295)" style="fill: #141313;"/><path d="M0 0 C8.77678898 6.99345735 15.92594989 15.9949908 17.9375 27.3125 C18.73973099 41.87607797 17.50521594 54.04458798 8.9375 66.3125 C7.8546875 67.8903125 7.8546875 67.8903125 6.75 69.5 C-3.82327903 80.07327903 -16.78132413 83.63333388 -31.33203125 83.69750977 C-43.62946395 83.45527967 -53.09507116 78.05671601 -61.76953125 69.66015625 C-71.85594263 58.80768831 -73.73111137 45.79329247 -73.44140625 31.57421875 C-72.83587475 19.42669252 -67.03202003 9.81819086 -58.3125 1.625 C-41.63508098 -12.31528536 -17.58243802 -12.42125269 0 0 Z " transform="translate(630.0625,293.6875)" style="fill: #131313;"/><path d="M0 0 C6.6 0 13.2 0 20 0 C24.49923212 10.12327226 24.49923212 10.12327226 25.90698242 14.3203125 C26.38218575 15.72591431 26.38218575 15.72591431 26.86698914 17.15991211 C27.19318741 18.13839111 27.51938568 19.11687012 27.85546875 20.125 C28.20257401 21.15310791 28.54967926 22.18121582 28.90730286 23.24047852 C30.0047734 26.49229807 31.09663239 29.74596001 32.1875 33 C33.28956624 36.28243383 34.3928927 39.56442104 35.49983215 42.84521484 C36.18613533 44.87969924 36.86955611 46.91515864 37.54985046 48.95166016 C38.01086906 50.31943604 38.01086906 50.31943604 38.48120117 51.71484375 C38.75115402 52.52042725 39.02110687 53.32601074 39.29924011 54.15600586 C39.85125007 55.98784898 39.85125007 55.98784898 41 57 C41.32685791 56.01418945 41.65371582 55.02837891 41.99047852 54.01269531 C52.93244485 21.02723124 52.93244485 21.02723124 57.1875 8.8125 C57.46601807 8.00780273 57.74453613 7.20310547 58.03149414 6.37402344 C59.87651921 1.12348079 59.87651921 1.12348079 61 0 C62.34267413 -0.08631874 63.68974322 -0.10706473 65.03515625 -0.09765625 C65.84404297 -0.09443359 66.65292969 -0.09121094 67.48632812 -0.08789062 C68.33646484 -0.07951172 69.18660156 -0.07113281 70.0625 -0.0625 C70.91650391 -0.05798828 71.77050781 -0.05347656 72.65039062 -0.04882812 C74.76695663 -0.03700373 76.88348685 -0.01906769 79 0 C90.80054364 33.2142982 90.80054364 33.2142982 95.25 46.4375 C95.53689697 47.28078857 95.82379395 48.12407715 96.11938477 48.99291992 C97.1558397 52.10490949 98 54.69694049 98 58 C98.66 58 99.32 58 100 58 C100.09748535 57.20956299 100.1949707 56.41912598 100.29541016 55.60473633 C101.19527303 51.00096801 102.70355325 46.73729635 104.2734375 42.32421875 C104.76005356 40.93732597 104.76005356 40.93732597 105.25650024 39.52241516 C106.29140265 36.57580206 107.33298424 33.6316042 108.375 30.6875 C109.40841661 27.75361092 110.44045603 24.81924096 111.47207642 21.88471985 C112.11294602 20.06326612 112.75509824 18.24226296 113.39877319 16.42179871 C113.69563019 15.5809523 113.99248718 14.7401059 114.29833984 13.8737793 C114.55513519 13.14797165 114.81193054 12.422164 115.07650757 11.67436218 C116.41649481 7.79386346 117.70177675 3.89466976 119 0 C125.93 0 132.86 0 140 0 C136.62469598 11.25101339 136.62469598 11.25101339 134.73510742 16.48095703 C134.31424362 17.64982452 133.89337982 18.81869202 133.45976257 20.02297974 C132.78938713 21.87172195 132.78938713 21.87172195 132.10546875 23.7578125 C131.63067784 25.0727504 131.15609832 26.38776465 130.68171692 27.70285034 C129.69074111 30.4483311 128.69801609 33.19317021 127.70385742 35.9375 C126.44744231 39.40586087 125.19421297 42.87536146 123.94210625 46.34527969 C109.42372542 86.57627458 109.42372542 86.57627458 108 88 C105.30345146 88.07319621 102.63308542 88.09242537 99.9375 88.0625 C99.17888672 88.05798828 98.42027344 88.05347656 97.63867188 88.04882812 C95.75908129 88.0370068 93.87953101 88.01907078 92 88 C86.19128246 73.21720931 80.67665543 58.40864942 75.76269531 43.30517578 C73.95179499 37.83189765 71.97515301 32.41574212 70 27 C69.73074707 27.77802979 69.73074707 27.77802979 69.45605469 28.57177734 C68.55506298 31.17320858 67.65273571 33.77417342 66.75 36.375 C66.40445068 37.37055908 66.05890137 38.36611816 65.70288086 39.3918457 C63.43200608 45.92054928 61.14025423 52.44145474 58.83203125 58.95703125 C58.56190216 59.7200354 58.29177307 60.48303955 58.01345825 61.26916504 C56.66138529 65.08767177 55.30726128 68.90543289 53.95019531 72.72216797 C53.44719197 74.14157546 52.94425907 75.56100792 52.44140625 76.98046875 C52.20944046 77.63062454 51.97747467 78.28078033 51.73847961 78.95063782 C50.67481153 81.9586615 49.77539523 84.89841907 49 88 C43.39 88 37.78 88 32 88 C25.72806055 71.30456706 19.47996602 54.60033439 13.26524925 37.88351822 C11.95611952 34.36224089 10.64564085 30.84147728 9.33227539 27.32177734 C8.0352401 23.84574775 6.74134856 20.3685637 5.44973946 16.89051437 C4.96243221 15.57993478 4.47400391 14.26977144 3.98441887 12.96004105 C3.30942488 11.15368666 2.63884899 9.34568315 1.96850586 7.53759766 C1.58705917 6.51300446 1.20561249 5.48841125 0.81260681 4.43276978 C0 2 0 2 0 0 Z " transform="translate(413,287)" style="fill: #131212;"/><path d="M0 0 C6.27 0 12.54 0 19 0 C19.495 40.59 19.495 40.59 20 82 C24.6003637 76.75856788 24.6003637 76.75856788 29.14453125 71.46875 C29.97017578 70.49421875 29.97017578 70.49421875 30.8125 69.5 C31.37582031 68.8296875 31.93914063 68.159375 32.51953125 67.46875 C34 66 34 66 36 66 C36.26296875 65.40832031 36.5259375 64.81664062 36.796875 64.20703125 C38.05377396 61.90135622 39.34768624 60.4827015 41.25 58.6875 C43.92576512 56.15982774 43.92576512 56.15982774 46.11962891 53.22485352 C48.34823987 49.94506581 49.83792535 48.23175192 53.82421875 47.43676758 C57.1996763 47.31100423 60.50184206 47.38927349 63.875 47.5625 C65.62296875 47.60987305 65.62296875 47.60987305 67.40625 47.65820312 C70.27342891 47.74045826 73.13540386 47.85533948 76 48 C74.15235372 52.02751409 71.47259937 54.71329682 68.3125 57.75 C64.23244053 61.74278547 60.34325033 65.79093893 56.640625 70.140625 C54.21883326 72.8853223 51.59568627 75.41356711 48.98828125 77.98046875 C46.38074806 80.62898478 43.95582517 83.4127748 41.54296875 86.23828125 C40 88 40 88 38.23828125 89.48046875 C37.82964844 89.98191406 37.42101562 90.48335938 37 91 C37.41779554 94.29528279 38.55128829 95.90627884 40.9140625 98.171875 C41.50662842 98.7496167 42.09919434 99.3273584 42.7097168 99.92260742 C43.34176025 100.52564697 43.97380371 101.12868652 44.625 101.75 C45.91721041 103.00982825 47.20759728 104.2715298 48.49609375 105.53515625 C49.11081543 106.13730957 49.72553711 106.73946289 50.35888672 107.35986328 C52.79372144 109.79324913 55.00865311 112.38287691 57.2265625 115.01171875 C60.38332715 118.55091084 63.84051616 121.80421296 67.25390625 125.09375 C70.49144255 128.5201042 73.24827601 132.18005832 76 136 C53.90885006 137.46606043 53.90885006 137.46606043 47.58203125 134.27734375 C45.34318371 131.96717009 43.7423876 129.70185214 42 127 C37.28231787 121.27255199 32.15227564 115.89474036 27.0625 110.5 C24.731875 108.025 22.40125 105.55 20 103 C19.67 113.89 19.34 124.78 19 136 C12.73 136 6.46 136 0 136 C0 91.12 0 46.24 0 0 Z " transform="translate(732,239)" style="fill: #121111;"/><path d="M0 0 C6.27 0 12.54 0 19 0 C19 10.89 19 21.78 19 33 C25.27 33 31.54 33 38 33 C38 38.28 38 43.56 38 49 C31.73 49 25.46 49 19 49 C19 72.76 19 96.52 19 121 C12.73 121 6.46 121 0 121 C0 97.24 0 73.48 0 49 C-5.28 49 -10.56 49 -16 49 C-16 43.72 -16 38.44 -16 33 C-10.72 33 -5.44 33 0 33 C0 22.11 0 11.22 0 0 Z " transform="translate(931,254)" style="fill: #111010;"/><path d="M0 0 C0.86625 0.495 1.7325 0.99 2.625 1.5 C2.14179152 7.7054142 1.29181876 13.49945246 -0.375 19.5 C-1.6434375 19.26216797 -1.6434375 19.26216797 -2.9375 19.01953125 C-9.97087186 17.956533 -17.4504758 17.13858356 -24 20.1875 C-31.18308022 27.1815518 -35.38986119 36.14690912 -35.58032227 46.26855469 C-35.60026749 47.20922791 -35.62021271 48.14990112 -35.64076233 49.11907959 C-35.66583107 50.63021332 -35.66583107 50.63021332 -35.69140625 52.171875 C-35.71218735 53.20942932 -35.73296844 54.24698364 -35.75437927 55.315979 C-35.81971408 58.62725258 -35.87868517 61.93860482 -35.9375 65.25 C-35.98070049 67.49610185 -36.02431527 69.74219578 -36.06835938 71.98828125 C-36.17537907 77.49210708 -36.27669192 82.99601195 -36.375 88.5 C-42.975 88.5 -49.575 88.5 -56.375 88.5 C-56.375 59.46 -56.375 30.42 -56.375 0.5 C-49.775 0.5 -43.175 0.5 -36.375 0.5 C-36.045 5.45 -35.715 10.4 -35.375 15.5 C-34.88 14.324375 -34.385 13.14875 -33.875 11.9375 C-31.05821707 6.29390999 -26.67240584 2.16809942 -21.05078125 -0.67578125 C-14.60268284 -2.66198383 -6.24771236 -2.70136743 0 0 Z " transform="translate(719.375,286.5)" style="fill: #171616;"/><path d="M0 0 C5.70358726 3.87373094 10.62219229 9.74439128 12.7109375 16.42578125 C14.32884135 25.09433977 12.47691284 33.24882626 7.63671875 40.5234375 C3.79994717 45.18926023 -1.16808212 48.58870167 -6.91796875 50.4140625 C-15.21709283 51.21330625 -22.9253536 51.41875215 -29.91796875 46.4140625 C-30.80484375 45.8571875 -31.69171875 45.3003125 -32.60546875 44.7265625 C-38.88432015 38.4477111 -41.05069521 31.33103951 -41.23046875 22.6640625 C-41.14426896 14.34578306 -39.24173343 9.75208744 -33.73046875 3.6640625 C-24.1538513 -5.1836792 -11.3438158 -6.56072061 0 0 Z " transform="translate(870.91796875,307.5859375)" style="fill: #FCFCFC;"/><path d="M0 0 C6.58170964 4.26172003 9.56582878 9.69748633 12 17 C12.82470268 26.67439684 11.59924285 34.21198035 5.375 41.8125 C-0.6050368 48.02045109 -5.96597933 50.17940585 -14.5625 50.4375 C-22.53832977 50.14966447 -28.51335957 48.37229752 -34.390625 42.83203125 C-40.71455955 35.63318343 -41.9024987 28.03398445 -41.4140625 18.71484375 C-40.58501623 11.27689089 -37.40424459 6.58246791 -31.97265625 1.54296875 C-22.16070471 -6.13172602 -10.68553204 -5.87157221 0 0 Z " transform="translate(617,308)" style="fill: #FCFCFC;"/><path d="M0 0 C6.4574707 4.19619035 10.67657945 9.6425016 13 17 C14.18721253 24.99085359 13.02671652 33.47165668 8.48828125 40.26171875 C4.03384663 45.67711005 -0.98033933 49.62631416 -8 51 C-16.78790405 51.83354103 -23.68377776 51.17889889 -31 46 C-37.75150039 39.54204311 -40.2345116 32.64720108 -40.5 23.4375 C-40.24141091 15.08757498 -38.34483762 10.40518371 -32.875 4.25 C-23.79685371 -4.20874185 -10.9728167 -5.54582794 0 0 Z " transform="translate(1033,307)" style="fill: #FCFCFC;"/></svg>